<?xml version="1.0" encoding="UTF-8" standalone="no"?>
<svg
   viewBox="0 0 213 76.102"
   width="213"
   height="76.102"
   version="1.1"
   id="svg13"
   sodipodi:docname="ach_temp.svg"
   xmlns:inkscape="http://www.inkscape.org/namespaces/inkscape"
   xmlns:sodipodi="http://sodipodi.sourceforge.net/DTD/sodipodi-0.dtd"
   xmlns="http://www.w3.org/2000/svg"
   xmlns:svg="http://www.w3.org/2000/svg">
  <defs
     id="defs13" />
  <sodipodi:namedview
     id="namedview13"
     pagecolor="#ffffff"
     bordercolor="#000000"
     borderopacity="0.25"
     inkscape:showpageshadow="2"
     inkscape:pageopacity="0.0"
     inkscape:pagecheckerboard="0"
     inkscape:deskcolor="#d1d1d1" />
  <rect
     x="0"
     y="0"
     width="213"
     height="76.102"
     style="fill: #071c2c"
     id="rect1" />
  <path
     d="m 65.446001,19.392001 c 0,0.144 0.036,0.162 0.108,0.162 h 5.688 c 0.072,0 0.108,-0.018 0.108,-0.162 0,-0.144 -0.036,-0.162 -0.108,-0.162 h -1.458 c -0.27,0 -0.306,-0.036 -0.306,-0.306 V 6.6300009 c 0,-0.198 -0.054,-0.306 -0.162,-0.306 h -1.494 c -0.126,0 -0.216,0.108 -0.27,0.342 -0.288,1.332 -1.314,3.8340001 -2.862,5.6520001 -0.018,0.018 -0.018,0.036 -0.018,0.054 0,0.072 0.108,0.18 0.18,0.18 0,0 0.018,0 0.036,-0.018 0.918,-1.026 2.196,-3.0600001 2.61,-4.5180001 l 0.054,0.036 c -0.036,0.342 -0.054,0.738 -0.054,1.35 v 9.5220001 c 0,0.27 -0.036,0.306 -0.306,0.306 h -1.638 c -0.072,0 -0.108,0.018 -0.108,0.162 z m 7.074012,-6.426 c 0,4.428 2.16,6.804 4.698,6.804 2.538,0 4.698,-2.376 4.698,-6.804 0,-4.4280001 -2.16,-6.8040001 -4.698,-6.8040001 -2.538,0 -4.698,2.376 -4.698,6.8040001 z m 3.186,5.868 c -0.702,-0.702 -1.062,-1.89 -1.062,-5.868 0,-3.9780001 0.36,-5.1660001 1.062,-5.8680001 0.414,-0.414 0.972,-0.612 1.512,-0.612 0.54,0 1.098,0.198 1.512,0.612 0.702,0.702 1.062,1.89 1.062,5.8680001 0,3.978 -0.36,5.166 -1.062,5.868 -0.414,0.414 -0.972,0.612 -1.512,0.612 -0.54,0 -1.098,-0.198 -1.512,-0.612 z m 7.506006,0.558 c 0,0.144 0.036,0.162 0.108,0.162 h 10.008 c 0.252,0 0.306,-0.072 0.306,-0.324 v -4.086 c 0,-0.09 -0.09,-0.126 -0.162,-0.126 -0.09,0 -0.144,0.036 -0.162,0.126 -0.45,2.88 -1.224,4.086 -3.816,4.086 h -2.088 c -0.27,0 -0.306,-0.036 -0.306,-0.306 V 6.9540009 c 0,-0.27 0.036,-0.306 0.306,-0.306 h 1.674 c 0.072,0 0.108,-0.018 0.108,-0.162 0,-0.144 -0.036,-0.162 -0.108,-0.162 h -5.706 c -0.072,0 -0.108,0.018 -0.108,0.162 0,0.144 0.036,0.162 0.108,0.162 h 1.206 c 0.27,0 0.306,0.036 0.306,0.306 V 18.924001 c 0,0.27 -0.036,0.306 -0.306,0.306 h -1.26 c -0.072,0 -0.108,0.018 -0.108,0.162 z m 28.566001,0 c 0,-0.144 -0.036,-0.162 -0.108,-0.162 h -0.81 c -0.27,0 -0.306,-0.036 -0.396,-0.306 l -4.392,-12.5820001 c -0.036,-0.108 -0.072,-0.144 -0.18,-0.144 h -0.468 c -0.09,0 -0.162,0.054 -0.198,0.144 l -3.204,9.5400001 c -0.954,2.844 -1.332,3.276 -2.339996,3.348 -0.108,0 -0.144,0.054 -0.144,0.162 0,0.144 0.036,0.162 0.108,0.162 h 3.689996 c 0.072,0 0.108,-0.018 0.108,-0.162 0,-0.144 -0.036,-0.162 -0.108,-0.162 -1.728,-0.072 -1.872,-0.648 -0.99,-3.258 l 0.36,-1.08 h 4.086 l 1.404,4.032 c 0.09,0.27 0.072,0.306 -0.198,0.306 h -1.386 c -0.072,0 -0.108,0.018 -0.108,0.162 0,0.144 0.036,0.162 0.108,0.162 h 5.058 c 0.072,0 0.108,-0.018 0.108,-0.162 z m -7.056,-10.5120001 h 0.072 c 0.144,0.612 0.36,1.2780001 0.558,1.8720001 l 1.332,3.816 h -3.888 z m 14.11201,4.7520001 c 0,-1.116 -1.296,-2.034 -2.646,-2.034 -2.268,0 -3.96,1.692 -3.96,4.086 0,2.358 1.71,4.086 3.816,4.086 1.314,0 2.34,-0.918 2.88,-1.962 0.036,-0.09 -0.216,-0.234 -0.27,-0.144 -0.522,0.864 -1.26,1.71 -2.34,1.71 -0.504,0 -1.008,-0.18 -1.332,-0.504 -0.54,-0.54 -0.828,-1.44 -0.828,-3.186 0,-1.746 0.288,-2.736 0.828,-3.276 0.324,-0.324 0.702,-0.486 1.206,-0.486 0.9,0 1.35,0.432 1.35,0.918 0,0.468 -0.36,0.684 -0.36,1.17 0,0.36 0.27,0.666 0.684,0.666 0.432,0 0.972,-0.414 0.972,-1.044 z m 0.918,5.76 c 0,0.144 0.036,0.162 0.108,0.162 h 4.284 c 0.072,0 0.108,-0.018 0.108,-0.162 0,-0.144 -0.036,-0.162 -0.108,-0.162 h -0.954 c -0.27,0 -0.306,-0.036 -0.306,-0.306 v -4.914 c 0.198,-1.188 0.918,-2.016 1.854,-2.016 1.026,0 1.656,0.702 1.656,2.232 v 4.698 c 0,0.27 -0.036,0.306 -0.306,0.306 h -0.846 c -0.072,0 -0.108,0.018 -0.108,0.162 0,0.144 0.036,0.162 0.108,0.162 h 3.942 c 0.072,0 0.108,-0.018 0.108,-0.162 0,-0.144 -0.036,-0.162 -0.108,-0.162 h -0.702 c -0.27,0 -0.306,-0.036 -0.306,-0.306 v -4.536 c 0,-1.782 -1.026,-2.79 -2.934,-2.79 -1.404,0 -2.124,0.792 -2.412,1.656 l -0.054,-0.036 c 0.054,-0.396 0.108,-1.152 0.108,-1.584 V 6.3060009 c 0,-0.27 -0.036,-0.306 -0.306,-0.306 h -2.538 c -0.072,0 -0.09,0.018 -0.09,0.162 0,0.144 0.018,0.162 0.09,0.162 h 0.756 c 0.27,0 0.306,0.036 0.306,0.306 V 18.924001 c 0,0.27 -0.036,0.306 -0.306,0.306 h -0.936 c -0.072,0 -0.108,0.018 -0.108,0.162 z m 10.06198,0 c 0,0.144 0.036,0.162 0.108,0.162 h 4.176 c 0.072,0 0.108,-0.018 0.108,-0.162 0,-0.144 -0.036,-0.162 -0.108,-0.162 h -0.828 c -0.27,0 -0.306,-0.036 -0.306,-0.306 v -6.804 c 0,-0.27 -0.036,-0.306 -0.306,-0.306 h -2.556 c -0.072,0 -0.108,0.018 -0.108,0.162 0,0.144 0.036,0.162 0.108,0.162 h 0.774 c 0.27,0 0.306,0.036 0.306,0.306 v 6.48 c 0,0.27 -0.036,0.306 -0.306,0.306 h -0.954 c -0.072,0 -0.108,0.018 -0.108,0.162 z m 1.008,-11.9340001 c 0,0.594 0.486,1.116 1.134,1.116 0.648,0 1.152,-0.522 1.152,-1.116 0,-0.594 -0.504,-1.134 -1.152,-1.134 -0.648,0 -1.134,0.54 -1.134,1.134 z m 4.374,8.2260001 c 0,2.358 1.71,4.086 3.816,4.086 1.422,0 2.592,-0.918 3.078,-1.962 0.036,-0.09 -0.216,-0.234 -0.27,-0.144 -0.504,0.846 -1.368,1.71 -2.538,1.71 -0.504,0 -1.008,-0.18 -1.332,-0.504 -0.54,-0.54 -0.828,-1.44 -0.828,-3.186 v -0.324 h 4.806 c 0.216,0 0.288,-0.054 0.288,-0.288 0,-1.764 -1.152,-3.474 -3.204,-3.474 -2.016,0 -3.816,1.692 -3.816,4.086 z m 3.708,-3.78 c 0.36,0 0.72,0.126 0.972,0.378 0.45,0.45 0.594,1.134 0.594,2.574 0,0.18 -0.072,0.198 -0.324,0.198 h -3.042 c 0,-1.188 0.162,-2.142 0.738,-2.718 0.288,-0.288 0.72,-0.432 1.062,-0.432 z m 3.74398,0.072 c 0,0.144 0.036,0.162 0.108,0.162 h 0.666 c 0.27,0 0.306,0.036 0.414,0.306 l 2.808,7.02 c 0.054,0.108 0.072,0.144 0.18,0.144 h 0.63 c 0.09,0 0.162,-0.054 0.198,-0.144 l 1.674,-4.572 c 0.9,-2.484 1.098,-2.682 1.872,-2.754 0.072,0 0.108,-0.036 0.108,-0.162 0,-0.144 -0.036,-0.162 -0.108,-0.162 h -2.826 c -0.072,0 -0.108,0.018 -0.108,0.162 0,0.126 0.036,0.162 0.108,0.162 1.242,0.072 1.422,0.324 0.594,2.664 l -1.116,3.15 h -0.072 c -0.198,-0.594 -0.486,-1.386 -0.666,-1.818 l -1.476,-3.69 c -0.108,-0.27 -0.108,-0.306 0.162,-0.306 h 0.972 c 0.09,0 0.126,-0.018 0.126,-0.162 0,-0.144 -0.036,-0.162 -0.108,-0.162 h -4.032 c -0.072,0 -0.108,0.018 -0.108,0.162 z m 9.10799,3.708 c 0,2.358 1.71,4.086 3.816,4.086 1.422,0 2.592,-0.918 3.078,-1.962 0.036,-0.09 -0.216,-0.234 -0.27,-0.144 -0.504,0.846 -1.368,1.71 -2.538,1.71 -0.504,0 -1.008,-0.18 -1.332,-0.504 -0.54,-0.54 -0.828,-1.44 -0.828,-3.186 v -0.324 h 4.806 c 0.216,0 0.288,-0.054 0.288,-0.288 0,-1.764 -1.152,-3.474 -3.204,-3.474 -2.016,0 -3.816,1.692 -3.816,4.086 z m 3.708,-3.78 c 0.36,0 0.72,0.126 0.972,0.378 0.45,0.45 0.594,1.134 0.594,2.574 0,0.18 -0.072,0.198 -0.324,0.198 h -3.042 c 0,-1.188 0.162,-2.142 0.738,-2.718 0.288,-0.288 0.72,-0.432 1.062,-0.432 z m 4.23,7.488 c 0,0.144 0.036,0.162 0.108,0.162 h 4.068 c 0.072,0 0.108,-0.018 0.108,-0.162 0,-0.144 -0.036,-0.162 -0.108,-0.162 h -0.72 c -0.27,0 -0.306,-0.036 -0.306,-0.306 v -5.112 c 0.234,-1.026 0.9,-1.818 1.728,-1.818 0.954,0 1.422,0.738 1.422,2.178 v 4.752 c 0,0.27 -0.036,0.306 -0.306,0.306 h -0.864 c -0.072,0 -0.108,0.018 -0.108,0.162 0,0.144 0.036,0.162 0.108,0.162 h 3.978 c 0.072,0 0.108,-0.018 0.108,-0.162 0,-0.144 -0.036,-0.162 -0.108,-0.162 h -0.72 c -0.27,0 -0.306,-0.036 -0.306,-0.306 v -4.968 c 0,-1.17 0.882,-1.962 1.656,-1.962 1.044,0 1.494,0.774 1.494,2.16 v 4.77 c 0,0.27 -0.036,0.306 -0.306,0.306 h -0.864 c -0.072,0 -0.108,0.018 -0.108,0.162 0,0.144 0.036,0.162 0.108,0.162 h 3.96 c 0.072,0 0.108,-0.018 0.108,-0.162 0,-0.144 -0.036,-0.162 -0.108,-0.162 h -0.702 c -0.27,0 -0.306,-0.036 -0.306,-0.306 v -4.554 c 0,-1.836 -1.098,-2.772 -2.808,-2.772 -1.206,0 -1.944,0.684 -2.268,1.53 h -0.072 c -0.324,-0.954 -1.152,-1.53 -2.538,-1.53 -1.134,0 -1.998,0.702 -2.214,1.584 l -0.054,-0.036 c 0.018,-0.288 0.054,-0.774 0.054,-1.026 0,-0.27 -0.036,-0.306 -0.306,-0.306 h -2.466 c -0.072,0 -0.108,0.018 -0.108,0.162 0,0.144 0.036,0.162 0.108,0.162 h 0.72 c 0.27,0 0.306,0.036 0.306,0.306 v 6.48 c 0,0.27 -0.036,0.306 -0.306,0.306 h -0.954 c -0.072,0 -0.108,0.018 -0.108,0.162 z m 15.102,-3.708 c 0,2.358 1.71,4.086 3.816,4.086 1.422,0 2.592,-0.918 3.078,-1.962 0.036,-0.09 -0.216,-0.234 -0.27,-0.144 -0.504,0.846 -1.368,1.71 -2.538,1.71 -0.504,0 -1.008,-0.18 -1.332,-0.504 -0.54,-0.54 -0.828,-1.44 -0.828,-3.186 v -0.324 h 4.806 c 0.216,0 0.288,-0.054 0.288,-0.288 0,-1.764 -1.152,-3.474 -3.204,-3.474 -2.016,0 -3.816,1.692 -3.816,4.086 z m 3.708,-3.78 c 0.36,0 0.72,0.126 0.972,0.378 0.45,0.45 0.594,1.134 0.594,2.574 0,0.18 -0.072,0.198 -0.324,0.198 h -3.042 c 0,-1.188 0.162,-2.142 0.738,-2.718 0.288,-0.288 0.72,-0.432 1.062,-0.432 z m 4.23001,7.488 c 0,0.144 0.036,0.162 0.108,0.162 h 4.176 c 0.072,0 0.108,-0.018 0.108,-0.162 0,-0.144 -0.036,-0.162 -0.108,-0.162 h -0.828 c -0.27,0 -0.306,-0.036 -0.306,-0.306 v -4.878 c 0.198,-1.224 0.918,-2.052 1.836,-2.052 0.9,0 1.584,0.576 1.584,2.196 v 4.734 c 0,0.27 -0.036,0.306 -0.306,0.306 h -0.828 c -0.072,0 -0.108,0.018 -0.108,0.162 0,0.144 0.036,0.162 0.108,0.162 h 3.96 c 0.072,0 0.108,-0.018 0.108,-0.162 0,-0.144 -0.036,-0.162 -0.108,-0.162 h -0.738 c -0.27,0 -0.306,-0.036 -0.306,-0.306 v -4.536 c 0,-1.8 -1.008,-2.79 -2.826,-2.79 -1.404,0 -2.124,0.792 -2.43,1.656 l -0.054,-0.036 c 0.036,-0.36 0.072,-0.846 0.072,-1.098 0,-0.27 -0.036,-0.306 -0.306,-0.306 h -2.484 c -0.072,0 -0.108,0.018 -0.108,0.162 0,0.144 0.036,0.162 0.108,0.162 h 0.738 c 0.27,0 0.306,0.036 0.306,0.306 v 6.48 c 0,0.27 -0.036,0.306 -0.306,0.306 h -0.954 c -0.072,0 -0.108,0.018 -0.108,0.162 z m 10.00799,-7.416 c 0,0.144 0.036,0.162 0.108,0.162 h 1.098 v 5.202 c 0,1.62 0.738,2.43 2.016,2.43 0.9,0 1.584,-0.486 2.07,-1.566 0.054,-0.108 -0.234,-0.234 -0.288,-0.126 -0.396,0.756 -0.846,1.08 -1.26,1.08 -0.486,0 -0.756,-0.27 -0.756,-1.062 v -5.958 h 1.998 c 0.072,0 0.108,-0.018 0.108,-0.162 0,-0.144 -0.036,-0.162 -0.108,-0.162 h -1.998 V 9.3300009 c 0,-0.27 -0.072,-0.306 -0.216,-0.306 -0.108,0 -0.144,0.036 -0.234,0.216 -0.36,0.7740001 -0.738,1.4760001 -1.26,2.2140001 -0.054,0.072 -0.072,0.126 -0.072,0.198 v 0.162 h -1.098 c -0.072,0 -0.108,0.018 -0.108,0.162 z m 6.83999,1.728 c 0,1.224 0.738,1.962 2.394,2.502 1.386,0.45 1.872,1.008 1.872,1.818 0,0.846 -0.63,1.422 -1.692,1.422 -1.386,0 -2.214,-0.972 -2.574,-2.718 -0.018,-0.054 -0.036,-0.108 -0.162,-0.108 -0.108,0 -0.162,0.054 -0.162,0.108 v 2.79 c 0,0.09 0.036,0.144 0.126,0.144 0.09,0 0.144,-0.036 0.198,-0.108 0.162,-0.198 0.288,-0.288 0.468,-0.288 0.558,0 0.954,0.504 2.106,0.504 1.818,0 2.844,-1.026 2.844,-2.466 0,-1.116 -0.702,-1.98 -2.466,-2.556 -1.422,-0.468 -1.8,-1.044 -1.8,-1.62 0,-0.72 0.468,-1.206 1.278,-1.206 1.134,0 1.746,0.594 2.07,1.944 0.018,0.072 0.072,0.108 0.162,0.108 0.09,0 0.162,-0.054 0.162,-0.108 v -2.016 c 0,-0.09 -0.036,-0.144 -0.126,-0.144 -0.09,0 -0.144,0.036 -0.198,0.108 -0.126,0.144 -0.198,0.234 -0.378,0.234 -0.324,0 -0.72,-0.45 -1.692,-0.45 -1.296,0 -2.43,0.774 -2.43,2.106 z"
     id="text1"
     style="font-size:18px;font-family:'Essonnes Test';fill:#f8c014"
     aria-label="10L Achievements" />
  <path
     d="m 142.4,31.209999 c 0,0.08 0.02,0.09 0.06,0.09 h 3.19 c 0.04,0 0.06,-0.01 0.06,-0.09 0,-0.08 -0.02,-0.09 -0.06,-0.09 h -0.92 c -0.15,0 -0.17,-0.02 -0.17,-0.17 v -3.42 h 0.63 c 1.03,0 1.29,0.27 1.43,1.17 0.01,0.05 0.03,0.08 0.08,0.08 0.08,0 0.1,-0.02 0.1,-0.06 v -2.56 c 0,-0.04 -0.02,-0.06 -0.1,-0.06 -0.05,0 -0.07,0.02 -0.08,0.07 -0.14,0.9 -0.4,1.18 -1.43,1.18 h -0.63 v -3.05 c 0,-0.15 0.02,-0.17 0.17,-0.17 h 1.5 c 0.96,0 1.5,0.54 1.78,1.97 0.01,0.05 0.03,0.08 0.08,0.08 0.08,0 0.1,-0.02 0.1,-0.06 v -1.99 c 0,-0.14 -0.03,-0.18 -0.17,-0.18 h -5.53 c -0.04,0 -0.06,0.01 -0.06,0.09 0,0.08 0.02,0.09 0.06,0.09 h 0.67 c 0.15,0 0.17,0.02 0.17,0.17 v 6.65 c 0,0.15 -0.02,0.17 -0.17,0.17 h -0.7 c -0.04,0 -0.06,0.01 -0.06,0.09 z m 5.84,-2.06 c 0,1.31 0.95,2.27 2.12,2.27 0.79,0 1.44,-0.51 1.71,-1.09 0.02,-0.05 -0.12,-0.13 -0.15,-0.08 -0.28,0.47 -0.76,0.95 -1.41,0.95 -0.28,0 -0.56,-0.1 -0.74,-0.28 -0.3,-0.3 -0.46,-0.8 -0.46,-1.77 v -0.18 h 2.67 c 0.12,0 0.16,-0.03 0.16,-0.16 0,-0.98 -0.64,-1.93 -1.78,-1.93 -1.12,0 -2.12,0.94 -2.12,2.27 z m 2.06,-2.1 c 0.2,0 0.4,0.07 0.54,0.21 0.25,0.25 0.33,0.63 0.33,1.43 0,0.1 -0.04,0.11 -0.18,0.11 h -1.69 c 0,-0.66 0.09,-1.19 0.41,-1.51 0.16,-0.16 0.4,-0.24 0.59,-0.24 z m 2.27,4.16 c 0,0.08 0.02,0.09 0.06,0.09 h 1.49 c 0.15,0 0.17,-0.02 0.17,-0.17 0,-0.07 -0.03,-0.46 -0.04,-0.62 l 0.03,-0.02 c 0.21,0.55 0.64,0.93 1.35,0.93 1.08,0 1.89,-0.89 1.89,-2.27 0,-1.38 -0.81,-2.27 -1.89,-2.27 -0.66,0 -1.08,0.31 -1.32,0.76 l -0.03,-0.02 c 0.01,-0.18 0.03,-0.72 0.03,-0.99 v -2.69 c 0,-0.15 -0.02,-0.17 -0.17,-0.17 h -1.43 c -0.04,0 -0.06,0.01 -0.06,0.09 0,0.08 0.02,0.09 0.06,0.09 h 0.44 c 0.15,0 0.17,0.02 0.17,0.17 v 6.83 c 0,0.15 -0.02,0.17 -0.17,0.17 h -0.52 c -0.04,0 -0.06,0.01 -0.06,0.09 z m 3.88,-2.06 c 0,0.93 -0.23,1.52 -0.48,1.77 -0.2,0.2 -0.4,0.28 -0.63,0.28 -0.54,0 -0.91,-0.49 -1.04,-1.29 v -1.59 c 0.05,-0.67 0.47,-1.22 1.04,-1.22 0.23,0 0.43,0.08 0.63,0.28 0.25,0.25 0.48,0.84 0.48,1.77 z m 1.59,2.06 c 0,0.08 0.02,0.09 0.06,0.09 h 2.45 c 0.04,0 0.06,-0.01 0.06,-0.09 0,-0.08 -0.02,-0.09 -0.06,-0.09 h -0.59 c -0.15,0 -0.17,-0.02 -0.17,-0.17 v -2.39 c 0.13,-1.02 0.55,-1.46 0.9,-1.46 0.16,0 0.25,0.11 0.25,0.25 0,0.19 -0.17,0.28 -0.17,0.55 0,0.22 0.17,0.39 0.42,0.39 0.28,0 0.57,-0.25 0.57,-0.64 0,-0.4 -0.33,-0.77 -0.85,-0.77 -0.57,0 -0.99,0.41 -1.13,1 l -0.03,-0.02 c 0,-0.15 0.02,-0.54 0.02,-0.64 v -0.05 c 0,-0.15 -0.02,-0.17 -0.17,-0.17 h -1.44 c -0.04,0 -0.06,0.01 -0.06,0.09 0,0.08 0.02,0.09 0.06,0.09 h 0.47 c 0.15,0 0.17,0.02 0.17,0.17 v 3.6 c 0,0.15 -0.02,0.17 -0.17,0.17 h -0.53 c -0.04,0 -0.06,0.01 -0.06,0.09 z m 4.02,-4.12 c 0,0.08 0.02,0.09 0.06,0.09 h 0.44 c 0.15,0 0.17,0.02 0.17,0.17 v 2.34 c 0,1.17 0.55,1.73 1.59,1.73 0.74,0 1.1,-0.42 1.28,-0.95 l 0.03,0.02 c -0.01,0.22 -0.02,0.56 -0.02,0.64 0,0.14 0.02,0.17 0.17,0.17 h 1.36 c 0.04,0 0.06,-0.01 0.06,-0.09 0,-0.08 -0.02,-0.09 -0.06,-0.09 h -0.41 c -0.15,0 -0.17,-0.02 -0.17,-0.17 v -3.78 c 0,-0.15 -0.02,-0.17 -0.17,-0.17 h -1.47 c -0.04,0 -0.06,0.01 -0.06,0.09 0,0.08 0.02,0.09 0.06,0.09 h 0.48 c 0.15,0 0.17,0.02 0.17,0.17 v 2.7 c -0.14,0.7 -0.46,1.15 -0.98,1.15 -0.53,0 -0.87,-0.39 -0.87,-1.22 v -2.81 c 0,-0.15 -0.02,-0.17 -0.17,-0.17 h -1.43 c -0.04,0 -0.06,0.01 -0.06,0.09 z m 5.73999,3.08 c 0,0.68 0.45,1.25 1.46,1.25 0.53,0 0.95,-0.27 1.11,-0.74 h 0.04 c 0.13,0.41 0.51,0.74 0.95,0.74 0.28,0 0.51,-0.07 0.74,-0.21 0.04,-0.03 -0.05,-0.18 -0.1,-0.15 -0.1,0.06 -0.26,0.11 -0.38,0.11 -0.2,0 -0.32,-0.1 -0.32,-0.42 v -2.29 c 0,-1 -0.6,-1.58 -1.82,-1.58 -0.81,0 -1.4,0.54 -1.4,1.03 0,0.29 0.19,0.54 0.43,0.54 0.25,0 0.41,-0.18 0.41,-0.39 0,-0.27 -0.19,-0.36 -0.19,-0.59 0,-0.2 0.25,-0.41 0.75,-0.41 0.49,0 0.85,0.3 0.85,1.06 v 0.97 c -0.22,-0.1 -0.49,-0.19 -0.87,-0.19 -1.06,0 -1.66,0.46 -1.66,1.27 z m 1.04,0 c 0,-0.83 0.32,-1.1 0.81,-1.1 0.26,0 0.51,0.1 0.68,0.21 v 0.87 c -0.06,0.66 -0.38,1.05 -0.78,1.05 -0.46,0 -0.71,-0.26 -0.71,-1.03 z m 3.49,1.04 c 0,0.08 0.02,0.09 0.06,0.09 h 2.45 c 0.04,0 0.06,-0.01 0.06,-0.09 0,-0.08 -0.02,-0.09 -0.06,-0.09 h -0.59 c -0.15,0 -0.17,-0.02 -0.17,-0.17 v -2.39 c 0.13,-1.02 0.55,-1.46 0.9,-1.46 0.16,0 0.25,0.11 0.25,0.25 0,0.19 -0.17,0.28 -0.17,0.55 0,0.22 0.17,0.39 0.42,0.39 0.28,0 0.57,-0.25 0.57,-0.64 0,-0.4 -0.33,-0.77 -0.85,-0.77 -0.57,0 -0.99,0.41 -1.13,1 l -0.03,-0.02 c 0,-0.15 0.02,-0.54 0.02,-0.64 v -0.05 c 0,-0.15 -0.02,-0.17 -0.17,-0.17 h -1.44 c -0.04,0 -0.06,0.01 -0.06,0.09 0,0.08 0.02,0.09 0.06,0.09 h 0.47 c 0.15,0 0.17,0.02 0.17,0.17 v 3.6 c 0,0.15 -0.02,0.17 -0.17,0.17 h -0.53 c -0.04,0 -0.06,0.01 -0.06,0.09 z m 3.85,-4.12 c 0,0.08 0.02,0.09 0.05,0.09 h 0.39 c 0.15,0 0.17,0.02 0.23,0.17 l 1.56,3.9 c 0.03,0.06 0.04,0.08 0.1,0.08 h 0.23 l -0.54,1.48 c -0.3,0.81 -0.54,1.01 -0.87,1.01 -0.15,0 -0.22,-0.12 -0.22,-0.23 0,-0.19 0.3,-0.34 0.3,-0.61 0,-0.23 -0.13,-0.36 -0.36,-0.36 -0.26,0 -0.55,0.26 -0.55,0.61 0,0.42 0.31,0.77 0.78,0.77 0.49,0 0.77,-0.27 1.08,-1.11 l 1.52,-4.18 c 0.5,-1.38 0.61,-1.49 1.04,-1.53 0.03,0 0.06,-0.02 0.06,-0.09 0,-0.08 -0.02,-0.09 -0.06,-0.09 h -1.57 c -0.04,0 -0.06,0.01 -0.06,0.09 0,0.07 0.02,0.09 0.06,0.09 0.7,0.04 0.79,0.18 0.33,1.48 l -0.61,1.73 h -0.04 c -0.11,-0.31 -0.26,-0.74 -0.36,-0.99 l -0.82,-2.05 c -0.06,-0.15 -0.05,-0.17 0.1,-0.17 h 0.52 c 0.04,0 0.06,-0.01 0.06,-0.09 0,-0.08 -0.02,-0.09 -0.05,-0.09 h -2.25 c -0.03,0 -0.05,0.01 -0.05,0.09 z m 7.93001,4.17 c -0.05,0.08 0.08,0.11 0.14,0.08 0.29,-0.15 0.9,-0.27 1.66,-0.27 1.29,0 2.24,0.26 2.49,0.26 0.09,0 0.12,-0.03 0.12,-0.11 v -1.99 c 0,-0.04 -0.01,-0.06 -0.09,-0.06 -0.08,0 -0.09,0.02 -0.09,0.06 v 1.06 c -0.2,-0.07 -0.49,-0.11 -1,-0.11 -0.93,0 -1.77,0.22 -2.66,0.68 l -0.02,-0.03 c 0.3,-0.36 0.8,-0.77 1.02,-0.97 1.4,-1.27 2.73,-2.16 2.73,-3.78 0,-1.4 -1.01,-2.22 -2.22,-2.22 -1.13,0 -1.88,0.86 -1.88,1.78 0,0.98 0.63,1.63 1.37,1.63 0.44,0 0.75,-0.27 0.75,-0.64 0,-0.24 -0.17,-0.48 -0.48,-0.48 -0.44,0 -0.6,0.56 -0.85,0.56 -0.31,0 -0.58,-0.37 -0.58,-1.07 0,-0.83 0.63,-1.59 1.55,-1.59 0.28,0 0.55,0.09 0.75,0.29 0.32,0.32 0.51,0.87 0.51,1.74 0,1.37 -0.45,2.42 -1.78,3.65 -0.56,0.51 -0.89,0.76 -1.44,1.53 z m 5.49001,-3.62 c 0,2.46 1.2,3.78 2.61,3.78 1.41,0 2.61,-1.32 2.61,-3.78 0,-2.46 -1.2,-3.78 -2.61,-3.78 -1.41,0 -2.61,1.32 -2.61,3.78 z m 1.77,3.26 c -0.39,-0.39 -0.59,-1.05 -0.59,-3.26 0,-2.21 0.2,-2.87 0.59,-3.26 0.23,-0.23 0.54,-0.34 0.84,-0.34 0.3,0 0.61,0.11 0.84,0.34 0.39,0.39 0.59,1.05 0.59,3.26 0,2.21 -0.2,2.87 -0.59,3.26 -0.23,0.23 -0.54,0.34 -0.84,0.34 -0.3,0 -0.61,-0.11 -0.84,-0.34 z m 3.97,0.36 c -0.05,0.08 0.08,0.11 0.14,0.08 0.29,-0.15 0.9,-0.27 1.66,-0.27 1.29,0 2.24,0.26 2.49,0.26 0.09,0 0.12,-0.03 0.12,-0.11 v -1.99 c 0,-0.04 -0.01,-0.06 -0.09,-0.06 -0.08,0 -0.09,0.02 -0.09,0.06 v 1.06 c -0.2,-0.07 -0.49,-0.11 -1,-0.11 -0.93,0 -1.77,0.22 -2.66,0.68 l -0.02,-0.03 c 0.3,-0.36 0.8,-0.77 1.02,-0.97 1.4,-1.27 2.73,-2.16 2.73,-3.78 0,-1.4 -1.01,-2.22 -2.22,-2.22 -1.13,0 -1.88,0.86 -1.88,1.78 0,0.98 0.63,1.63 1.37,1.63 0.44,0 0.75,-0.27 0.75,-0.64 0,-0.24 -0.17,-0.48 -0.48,-0.48 -0.44,0 -0.6,0.56 -0.85,0.56 -0.31,0 -0.58,-0.37 -0.58,-1.07 0,-0.83 0.63,-1.59 1.55,-1.59 0.28,0 0.55,0.09 0.75,0.29 0.32,0.32 0.51,0.87 0.51,1.74 0,1.37 -0.45,2.42 -1.78,3.65 -0.56,0.51 -0.89,0.76 -1.44,1.53 z m 5.23,-1.33 c 0,0.74 0.79,1.49 1.92,1.49 1.24,0 2.51,-0.88 2.51,-2.3 0,-1.38 -1,-2.24 -2.3,-2.24 -0.64,0 -1.09,0.31 -1.45,0.73 l -0.03,-0.02 c 0.28,-0.32 0.67,-1.21 0.67,-2.07 v -0.02 l 0.03,-0.02 c 0.05,0.01 0.18,0.02 0.23,0.02 1.46,0 2.62,-0.68 2.83,-1.57 0.01,-0.04 -0.02,-0.06 -0.06,-0.06 -0.04,0 -0.28,0.2 -0.62,0.2 -0.44,0 -0.45,-0.22 -0.54,-0.22 -0.04,0 -0.05,0.03 -0.06,0.07 -0.24,0.96 -0.74,1.4 -1.55,1.4 -0.11,0 -0.21,-0.01 -0.27,-0.04 -0.09,-0.83 -0.49,-1.33 -0.85,-1.33 -0.21,0 -0.36,0.15 -0.36,0.38 0,0.41 0.38,0.87 1.01,1.12 v 0.07 c 0,0.9 -0.36,1.78 -0.84,2.26 -0.15,0.15 0.26,0.49 0.37,0.26 0.26,-0.55 0.76,-0.97 1.38,-0.97 0.32,0 0.61,0.12 0.81,0.32 0.32,0.32 0.44,0.81 0.44,1.73 0,0.97 -0.16,1.45 -0.5,1.79 -0.21,0.21 -0.51,0.33 -0.85,0.33 -0.74,0 -1.17,-0.37 -1.17,-0.71 0,-0.35 0.46,-0.48 0.46,-0.9 0,-0.26 -0.19,-0.49 -0.49,-0.49 -0.35,0 -0.72,0.3 -0.72,0.79 z"
     id="text2"
     style="font-size:10px;font-family:'Essonnes Test';fill:#ae9957"
     aria-label="February 2025" />
  <g
     id="achievements-text"
     style="font-size:6px;font-family:Soleil;fill:#ae9957"
     aria-label="Jasper reached Grade 8 Violin&#10;Praten reached Grade 6 Guitar&#10;Ishaan completed both Grade 3 Piano and Grade 5 Clarinet&#10;Arjun achieved Distinction in Grade 6 Piano&#10;Aayush &amp; Zain qualified for the final round of the International Youth&#10;    Maths Challenge">
    <path
       style="font-weight:bold;fill:#f8c014"
       d="m 6.8899999,27.069999 h -0.858 v 2.982 c 0,0.174 -0.006,0.318 -0.06,0.414 -0.048,0.078 -0.132,0.126 -0.288,0.126 -0.156,0 -0.276,-0.042 -0.414,-0.12 l -0.27,0.678 c 0.252,0.126 0.57,0.192 0.786,0.192 0.39,0 0.66,-0.096 0.834,-0.282 0.192,-0.204 0.27,-0.51 0.27,-0.906 z m 3.4800011,4.2 v -1.896 c 0,-0.822 -0.4260001,-1.332 -1.3020001,-1.332 -0.468,0 -0.954,0.126 -1.356,0.324 l 0.228,0.612 c 0.276,-0.144 0.594,-0.276 0.954,-0.276 0.462,0 0.624,0.24 0.624,0.636 v 0.048 c -0.198,-0.042 -0.396,-0.066 -0.57,-0.066 -0.654,0 -1.374,0.246 -1.374,1.02 0,0.648 0.546,1.002 1.134,1.002 0.336,0 0.654,-0.09 0.858,-0.342 l 0.066,0.27 z m -0.8520001,-0.792 c -0.18,0.162 -0.384,0.27 -0.63,0.27 -0.252,0 -0.48,-0.144 -0.48,-0.42 0,-0.372 0.366,-0.486 0.678,-0.486 0.132,0 0.27,0.018 0.432,0.054 z m 3.8340041,-2.022 c -0.294,-0.276 -0.672,-0.414 -1.092,-0.414 -0.576,0 -1.128,0.324 -1.128,0.966 0,0.552 0.414,0.768 0.792,0.93 0.312,0.138 0.6,0.234 0.6,0.456 0,0.192 -0.228,0.276 -0.402,0.276 -0.306,0 -0.504,-0.138 -0.744,-0.372 l -0.486,0.504 c 0.348,0.348 0.78,0.54 1.272,0.54 0.612,0 1.212,-0.318 1.212,-1.014 0,-0.6 -0.516,-0.804 -0.924,-0.972 -0.264,-0.108 -0.498,-0.21 -0.498,-0.408 0,-0.15 0.144,-0.24 0.306,-0.24 0.24,0 0.462,0.12 0.624,0.264 z m 0.702006,-0.342 v 4.656 h 0.852 v -1.806 c 0.24,0.276 0.618,0.378 0.924,0.378 0.852,0 1.476,-0.75 1.476,-1.638 0,-0.918 -0.63,-1.662 -1.47,-1.662 -0.324,0 -0.75,0.12 -0.978,0.462 l -0.066,-0.39 z m 0.852,1.08 c 0.186,-0.312 0.474,-0.42 0.744,-0.42 0.492,0 0.786,0.438 0.786,0.906 0,0.444 -0.252,0.93 -0.798,0.93 -0.27,0 -0.522,-0.09 -0.732,-0.342 z m 5.879994,0.708 c 0.024,-0.126 0.042,-0.276 0.042,-0.402 0,-0.84 -0.648,-1.458 -1.524,-1.458 -0.906,0 -1.602,0.732 -1.602,1.686 0,0.948 0.642,1.614 1.596,1.614 0.678,0 1.08,-0.252 1.44,-0.774 l -0.558,-0.378 c -0.204,0.3 -0.414,0.468 -0.822,0.468 -0.45,0 -0.732,-0.324 -0.792,-0.756 z m -2.178,-0.582 c 0.09,-0.354 0.312,-0.612 0.72,-0.612 0.348,0 0.612,0.234 0.63,0.612 z m 3.575996,-1.206 h -0.738 v 3.156 h 0.852 v -2.136 c 0.126,-0.21 0.348,-0.348 0.594,-0.348 0.108,0 0.21,0.024 0.3,0.072 l 0.204,-0.744 c -0.114,-0.042 -0.252,-0.072 -0.408,-0.072 -0.312,0 -0.558,0.198 -0.738,0.492 z"
       id="path13" />
    <path
       d="m 25.826005,28.269999 h -0.546 v 3 h 0.546 v -2.01 c 0.186,-0.324 0.408,-0.504 0.714,-0.504 0.114,0 0.192,0.018 0.282,0.06 l 0.102,-0.582 c -0.114,-0.024 -0.198,-0.036 -0.324,-0.036 -0.324,0 -0.594,0.246 -0.774,0.57 z m 4.176002,1.638 c 0.012,-0.078 0.024,-0.21 0.024,-0.312 0,-0.804 -0.576,-1.398 -1.368,-1.398 -0.834,0 -1.488,0.678 -1.488,1.572 0,0.876 0.534,1.572 1.488,1.572 0.606,0 1.014,-0.222 1.314,-0.702 l -0.396,-0.252 c -0.18,0.342 -0.498,0.486 -0.894,0.486 -0.576,0 -0.93,-0.45 -0.966,-0.966 z m -1.338,-1.242 c 0.45,0 0.774,0.378 0.798,0.804 h -1.704 c 0.108,-0.45 0.42,-0.804 0.906,-0.804 z m 4.421997,2.604 v -1.824 c 0,-0.774 -0.318,-1.248 -1.188,-1.248 -0.414,0 -0.87,0.132 -1.182,0.282 l 0.162,0.456 c 0.24,-0.132 0.606,-0.264 0.954,-0.264 0.492,0 0.708,0.264 0.708,0.72 v 0.108 c -0.258,-0.054 -0.45,-0.066 -0.6,-0.066 -0.66,0 -1.338,0.234 -1.338,0.996 0,0.642 0.51,0.912 1.062,0.912 0.384,0 0.654,-0.114 0.9,-0.39 v 0.318 z m -0.546,-0.744 c -0.24,0.204 -0.504,0.36 -0.81,0.36 -0.318,0 -0.594,-0.132 -0.594,-0.498 0,-0.45 0.492,-0.54 0.864,-0.54 0.15,0 0.318,0.012 0.54,0.06 z m 3.449997,0.102 c -0.162,0.12 -0.438,0.21 -0.636,0.21 -0.522,0 -0.99,-0.42 -0.99,-1.068 0,-0.594 0.444,-1.068 0.984,-1.068 0.216,0 0.444,0.078 0.612,0.204 l 0.258,-0.45 c -0.24,-0.162 -0.528,-0.258 -0.846,-0.258 -0.876,0 -1.566,0.696 -1.566,1.572 0,0.948 0.678,1.572 1.536,1.572 0.36,0 0.696,-0.114 0.918,-0.294 z m 1.464002,-3.858 h -0.546 v 4.5 h 0.546 v -1.992 c 0.216,-0.336 0.546,-0.576 0.894,-0.576 0.264,0 0.426,0.096 0.522,0.24 0.144,0.216 0.156,0.534 0.156,0.828 v 1.5 h 0.546 v -1.56 c 0,-0.456 -0.066,-0.858 -0.27,-1.134 -0.174,-0.234 -0.45,-0.378 -0.87,-0.378 -0.402,0 -0.756,0.21 -0.978,0.564 z m 5.670006,3.138 c 0.012,-0.078 0.024,-0.21 0.024,-0.312 0,-0.804 -0.576,-1.398 -1.368,-1.398 -0.834,0 -1.488,0.678 -1.488,1.572 0,0.876 0.534,1.572 1.488,1.572 0.606,0 1.014,-0.222 1.314,-0.702 l -0.396,-0.252 c -0.18,0.342 -0.498,0.486 -0.894,0.486 -0.576,0 -0.93,-0.45 -0.966,-0.966 z m -1.338,-1.242 c 0.45,0 0.774,0.378 0.798,0.804 h -1.704 c 0.108,-0.45 0.42,-0.804 0.906,-0.804 z m 3.365996,2.676 c 0.36,0 0.738,-0.156 0.954,-0.474 v 0.402 h 0.546 v -4.5 h -0.546 v 1.83 c -0.24,-0.246 -0.594,-0.402 -0.942,-0.402 -0.918,0 -1.512,0.774 -1.512,1.572 0,0.876 0.636,1.572 1.5,1.572 z m 0.072,-0.504 c -0.624,0 -1.014,-0.504 -1.014,-1.056 0,-0.522 0.33,-1.08 1.026,-1.08 0.306,0 0.66,0.162 0.87,0.456 v 1.116 c -0.156,0.366 -0.558,0.564 -0.882,0.564 z m 7.193997,-1.38 v 0.93 c -0.294,0.282 -0.702,0.438 -1.146,0.438 -0.96,0 -1.644,-0.636 -1.644,-1.656 0,-0.96 0.696,-1.656 1.644,-1.656 0.48,0 0.924,0.234 1.218,0.564 l 0.408,-0.336 c -0.402,-0.456 -0.978,-0.744 -1.626,-0.744 -1.242,0 -2.256,0.93 -2.256,2.172 0,1.302 0.972,2.172 2.256,2.172 0.69,0 1.32,-0.294 1.722,-0.804 v -1.596 h -1.644 v 0.516 z m 2.105997,-1.188 h -0.546 v 3 h 0.546 v -2.01 c 0.186,-0.324 0.408,-0.504 0.714,-0.504 0.114,0 0.192,0.018 0.282,0.06 l 0.102,-0.582 c -0.114,-0.024 -0.198,-0.036 -0.324,-0.036 -0.324,0 -0.594,0.246 -0.774,0.57 z m 3.900002,3 v -1.824 c 0,-0.774 -0.318,-1.248 -1.188,-1.248 -0.414,0 -0.87,0.132 -1.182,0.282 l 0.162,0.456 c 0.24,-0.132 0.606,-0.264 0.954,-0.264 0.492,0 0.708,0.264 0.708,0.72 v 0.108 c -0.258,-0.054 -0.45,-0.066 -0.6,-0.066 -0.66,0 -1.338,0.234 -1.338,0.996 0,0.642 0.51,0.912 1.062,0.912 0.384,0 0.654,-0.114 0.9,-0.39 v 0.318 z m -0.546,-0.744 c -0.24,0.204 -0.504,0.36 -0.81,0.36 -0.318,0 -0.594,-0.132 -0.594,-0.498 0,-0.45 0.492,-0.54 0.864,-0.54 0.15,0 0.318,0.012 0.54,0.06 z m 2.765997,0.816 c 0.36,0 0.738,-0.156 0.954,-0.474 v 0.402 h 0.546 v -4.5 h -0.546 v 1.83 c -0.24,-0.246 -0.594,-0.402 -0.942,-0.402 -0.918,0 -1.512,0.774 -1.512,1.572 0,0.876 0.636,1.572 1.5,1.572 z m 0.072,-0.504 c -0.624,0 -1.014,-0.504 -1.014,-1.056 0,-0.522 0.33,-1.08 1.026,-1.08 0.306,0 0.66,0.162 0.87,0.456 v 1.116 c -0.156,0.366 -0.558,0.564 -0.882,0.564 z m 5.015997,-0.93 c 0.012,-0.078 0.024,-0.21 0.024,-0.312 0,-0.804 -0.576,-1.398 -1.368,-1.398 -0.834,0 -1.488,0.678 -1.488,1.572 0,0.876 0.534,1.572 1.488,1.572 0.606,0 1.014,-0.222 1.314,-0.702 l -0.396,-0.252 c -0.18,0.342 -0.498,0.486 -0.894,0.486 -0.576,0 -0.93,-0.45 -0.966,-0.966 z m -1.338,-1.242 c 0.45,0 0.774,0.378 0.798,0.804 h -1.704 c 0.108,-0.45 0.42,-0.804 0.906,-0.804 z m 4.799997,2.676 c 0.804,0 1.35,-0.516 1.35,-1.17 0,-0.474 -0.24,-0.798 -0.618,-1.002 0.306,-0.18 0.498,-0.438 0.498,-0.864 0,-0.606 -0.492,-1.092 -1.23,-1.092 -0.738,0 -1.23,0.486 -1.23,1.092 0,0.426 0.192,0.684 0.498,0.864 -0.378,0.204 -0.618,0.528 -0.618,1.002 0,0.654 0.546,1.17 1.35,1.17 z m 0,-1.89 c 0.426,0 0.774,0.312 0.774,0.696 0,0.402 -0.348,0.69 -0.774,0.69 -0.426,0 -0.774,-0.288 -0.774,-0.69 0,-0.384 0.348,-0.696 0.774,-0.696 z m 0,-1.734 c 0.366,0 0.666,0.252 0.666,0.612 0,0.342 -0.3,0.618 -0.666,0.618 -0.366,0 -0.666,-0.276 -0.666,-0.618 0,-0.36 0.3,-0.612 0.666,-0.612 z m 6.954005,-0.648 h -0.63 l -1.218,3.324 h -0.006 l -1.218,-3.324 h -0.666 l 1.608,4.2 h 0.504 z m 1.079989,4.2 v -3 h -0.546 v 3 z m 0,-3.588 v -0.612 h -0.546 v 0.612 z m 2.286009,0.516 c -0.876,0 -1.53,0.696 -1.53,1.572 0,0.876 0.654,1.572 1.53,1.572 0.876,0 1.53,-0.696 1.53,-1.572 0,-0.876 -0.654,-1.572 -1.53,-1.572 z m 0.972,1.572 c 0,0.582 -0.408,1.068 -0.972,1.068 -0.564,0 -0.972,-0.486 -0.972,-1.068 0,-0.582 0.408,-1.068 0.972,-1.068 0.564,0 0.972,0.486 0.972,1.068 z m 1.860003,-3 h -0.546 v 4.5 h 0.546 z m 1.554,4.5 v -3 h -0.546 v 3 z m 0,-3.588 v -0.612 h -0.546 v 0.612 z m 1.008001,0.588 v 3 h 0.546 v -1.992 c 0.216,-0.336 0.546,-0.576 0.894,-0.576 0.264,0 0.426,0.096 0.522,0.24 0.144,0.216 0.156,0.534 0.156,0.828 v 1.5 h 0.546 v -1.56 c 0,-0.456 -0.066,-0.858 -0.27,-1.134 -0.174,-0.234 -0.45,-0.378 -0.87,-0.378 -0.402,0 -0.756,0.21 -0.978,0.564 v -0.492 z"
       id="path14" />
    <path
       style="font-weight:bold;fill:#f8c014"
       d="m 5.7319999,34.569999 v 4.2 h 0.858 v -1.584 h 0.48 c 0.72,0 1.572,-0.348 1.572,-1.314 0,-0.954 -0.858,-1.302 -1.572,-1.302 z m 0.858,0.726 h 0.456 c 0.408,0 0.684,0.222 0.684,0.594 0,0.42 -0.342,0.57 -0.798,0.57 h -0.342 z m 3.3539961,0.318 h -0.738 v 3.156 h 0.852 v -2.136 c 0.126,-0.21 0.348,-0.348 0.594,-0.348 0.108,0 0.21,0.024 0.3,0.072 l 0.204,-0.744 c -0.114,-0.042 -0.252,-0.072 -0.408,-0.072 -0.312,0 -0.558,0.198 -0.738,0.492 z m 4.158003,3.156 v -1.896 c 0,-0.822 -0.426,-1.332 -1.302,-1.332 -0.468,0 -0.954,0.126 -1.356,0.324 l 0.228,0.612 c 0.276,-0.144 0.594,-0.276 0.954,-0.276 0.462,0 0.624,0.24 0.624,0.636 v 0.048 c -0.198,-0.042 -0.396,-0.066 -0.57,-0.066 -0.654,0 -1.374,0.246 -1.374,1.02 0,0.648 0.546,1.002 1.134,1.002 0.336,0 0.654,-0.09 0.858,-0.342 l 0.066,0.27 z m -0.852,-0.792 c -0.18,0.162 -0.384,0.27 -0.63,0.27 -0.252,0 -0.48,-0.144 -0.48,-0.42 0,-0.372 0.366,-0.486 0.678,-0.486 0.132,0 0.27,0.018 0.432,0.054 z m 3.342005,-1.656 v -0.708 h -0.804 v -0.696 h -0.72 l -0.132,0.696 h -0.378 v 0.708 h 0.378 v 1.314 c 0,0.186 0.012,0.372 0.06,0.528 0.114,0.408 0.444,0.678 0.936,0.678 0.246,0 0.546,-0.066 0.75,-0.186 l -0.264,-0.63 c -0.108,0.054 -0.21,0.09 -0.342,0.09 -0.18,0 -0.252,-0.114 -0.276,-0.3 -0.012,-0.09 -0.012,-0.174 -0.012,-0.27 v -1.224 z m 3.444001,1.08 c 0.024,-0.126 0.042,-0.276 0.042,-0.402 0,-0.84 -0.648,-1.458 -1.524,-1.458 -0.906,0 -1.602,0.732 -1.602,1.686 0,0.948 0.642,1.614 1.596,1.614 0.678,0 1.08,-0.252 1.44,-0.774 l -0.558,-0.378 c -0.204,0.3 -0.414,0.468 -0.822,0.468 -0.45,0 -0.732,-0.324 -0.792,-0.756 z m -2.178,-0.582 c 0.09,-0.354 0.312,-0.612 0.72,-0.612 0.348,0 0.612,0.234 0.63,0.612 z m 2.837996,-1.206 v 3.156 h 0.852 v -2.094 c 0.156,-0.258 0.432,-0.402 0.684,-0.402 0.186,0 0.342,0.066 0.42,0.222 0.09,0.18 0.096,0.444 0.096,0.678 v 1.596 h 0.852 v -1.638 c 0,-0.45 -0.036,-0.858 -0.282,-1.176 -0.198,-0.252 -0.498,-0.414 -0.84,-0.414 -0.348,0 -0.726,0.15 -0.978,0.504 l -0.066,-0.432 z"
       id="path15" />
    <path
       d="m 26.540002,35.769999 h -0.546 v 3 h 0.546 v -2.01 c 0.186,-0.324 0.408,-0.504 0.714,-0.504 0.114,0 0.192,0.018 0.282,0.06 l 0.102,-0.582 c -0.114,-0.024 -0.198,-0.036 -0.324,-0.036 -0.324,0 -0.594,0.246 -0.774,0.57 z m 4.176002,1.638 c 0.012,-0.078 0.024,-0.21 0.024,-0.312 0,-0.804 -0.576,-1.398 -1.368,-1.398 -0.834,0 -1.488,0.678 -1.488,1.572 0,0.876 0.534,1.572 1.488,1.572 0.606,0 1.014,-0.222 1.314,-0.702 l -0.396,-0.252 c -0.18,0.342 -0.498,0.486 -0.894,0.486 -0.576,0 -0.93,-0.45 -0.966,-0.966 z m -1.338,-1.242 c 0.45,0 0.774,0.378 0.798,0.804 h -1.704 c 0.108,-0.45 0.42,-0.804 0.906,-0.804 z m 4.421997,2.604 v -1.824 c 0,-0.774 -0.318,-1.248 -1.188,-1.248 -0.414,0 -0.87,0.132 -1.182,0.282 l 0.162,0.456 c 0.24,-0.132 0.606,-0.264 0.954,-0.264 0.492,0 0.708,0.264 0.708,0.72 v 0.108 c -0.258,-0.054 -0.45,-0.066 -0.6,-0.066 -0.66,0 -1.338,0.234 -1.338,0.996 0,0.642 0.51,0.912 1.062,0.912 0.384,0 0.654,-0.114 0.9,-0.39 v 0.318 z m -0.546,-0.744 c -0.24,0.204 -0.504,0.36 -0.81,0.36 -0.318,0 -0.594,-0.132 -0.594,-0.498 0,-0.45 0.492,-0.54 0.864,-0.54 0.15,0 0.318,0.012 0.54,0.06 z m 3.449997,0.102 c -0.162,0.12 -0.438,0.21 -0.636,0.21 -0.522,0 -0.99,-0.42 -0.99,-1.068 0,-0.594 0.444,-1.068 0.984,-1.068 0.216,0 0.444,0.078 0.612,0.204 l 0.258,-0.45 c -0.24,-0.162 -0.528,-0.258 -0.846,-0.258 -0.876,0 -1.566,0.696 -1.566,1.572 0,0.948 0.678,1.572 1.536,1.572 0.36,0 0.696,-0.114 0.918,-0.294 z m 1.464002,-3.858 h -0.546 v 4.5 h 0.546 v -1.992 c 0.216,-0.336 0.546,-0.576 0.894,-0.576 0.264,0 0.426,0.096 0.522,0.24 0.144,0.216 0.156,0.534 0.156,0.828 v 1.5 h 0.546 v -1.56 c 0,-0.456 -0.066,-0.858 -0.27,-1.134 -0.174,-0.234 -0.45,-0.378 -0.87,-0.378 -0.402,0 -0.756,0.21 -0.978,0.564 z m 5.670005,3.138 c 0.012,-0.078 0.024,-0.21 0.024,-0.312 0,-0.804 -0.576,-1.398 -1.368,-1.398 -0.834,0 -1.488,0.678 -1.488,1.572 0,0.876 0.534,1.572 1.488,1.572 0.606,0 1.014,-0.222 1.314,-0.702 l -0.396,-0.252 c -0.18,0.342 -0.498,0.486 -0.894,0.486 -0.576,0 -0.93,-0.45 -0.966,-0.966 z m -1.338,-1.242 c 0.45,0 0.774,0.378 0.798,0.804 h -1.704 c 0.108,-0.45 0.42,-0.804 0.906,-0.804 z m 3.365997,2.676 c 0.36,0 0.738,-0.156 0.954,-0.474 v 0.402 h 0.546 v -4.5 h -0.546 v 1.83 c -0.24,-0.246 -0.594,-0.402 -0.942,-0.402 -0.918,0 -1.512,0.774 -1.512,1.572 0,0.876 0.636,1.572 1.5,1.572 z m 0.072,-0.504 c -0.624,0 -1.014,-0.504 -1.014,-1.056 0,-0.522 0.33,-1.08 1.026,-1.08 0.306,0 0.66,0.162 0.87,0.456 v 1.116 c -0.156,0.366 -0.558,0.564 -0.882,0.564 z m 7.193997,-1.38 v 0.93 c -0.294,0.282 -0.702,0.438 -1.146,0.438 -0.96,0 -1.644,-0.636 -1.644,-1.656 0,-0.96 0.696,-1.656 1.644,-1.656 0.48,0 0.924,0.234 1.218,0.564 l 0.408,-0.336 c -0.402,-0.456 -0.978,-0.744 -1.626,-0.744 -1.242,0 -2.256,0.93 -2.256,2.172 0,1.302 0.972,2.172 2.256,2.172 0.69,0 1.32,-0.294 1.722,-0.804 v -1.596 h -1.644 v 0.516 z m 2.105997,-1.188 h -0.546 v 3 h 0.546 v -2.01 c 0.186,-0.324 0.408,-0.504 0.714,-0.504 0.114,0 0.192,0.018 0.282,0.06 l 0.102,-0.582 c -0.114,-0.024 -0.198,-0.036 -0.324,-0.036 -0.324,0 -0.594,0.246 -0.774,0.57 z m 3.900002,3 v -1.824 c 0,-0.774 -0.318,-1.248 -1.188,-1.248 -0.414,0 -0.87,0.132 -1.182,0.282 l 0.162,0.456 c 0.24,-0.132 0.606,-0.264 0.954,-0.264 0.492,0 0.708,0.264 0.708,0.72 v 0.108 c -0.258,-0.054 -0.45,-0.066 -0.6,-0.066 -0.66,0 -1.338,0.234 -1.338,0.996 0,0.642 0.51,0.912 1.062,0.912 0.384,0 0.654,-0.114 0.9,-0.39 v 0.318 z m -0.546,-0.744 c -0.24,0.204 -0.504,0.36 -0.81,0.36 -0.318,0 -0.594,-0.132 -0.594,-0.498 0,-0.45 0.492,-0.54 0.864,-0.54 0.15,0 0.318,0.012 0.54,0.06 z m 2.765997,0.816 c 0.36,0 0.738,-0.156 0.954,-0.474 v 0.402 h 0.546 v -4.5 h -0.546 v 1.83 c -0.24,-0.246 -0.594,-0.402 -0.942,-0.402 -0.918,0 -1.512,0.774 -1.512,1.572 0,0.876 0.636,1.572 1.5,1.572 z m 0.072,-0.504 c -0.624,0 -1.014,-0.504 -1.014,-1.056 0,-0.522 0.33,-1.08 1.026,-1.08 0.306,0 0.66,0.162 0.87,0.456 v 1.116 c -0.156,0.366 -0.558,0.564 -0.882,0.564 z m 5.015997,-0.93 c 0.012,-0.078 0.024,-0.21 0.024,-0.312 0,-0.804 -0.576,-1.398 -1.368,-1.398 -0.834,0 -1.488,0.678 -1.488,1.572 0,0.876 0.534,1.572 1.488,1.572 0.606,0 1.014,-0.222 1.314,-0.702 l -0.396,-0.252 c -0.18,0.342 -0.498,0.486 -0.894,0.486 -0.576,0 -0.93,-0.45 -0.966,-0.966 z m -1.338,-1.242 c 0.45,0 0.774,0.378 0.798,0.804 h -1.704 c 0.108,-0.45 0.42,-0.804 0.906,-0.804 z m 5.315997,-1.602 c -1.08,0.438 -1.962,1.416 -1.962,2.688 0,0.834 0.54,1.59 1.458,1.59 0.732,0 1.266,-0.57 1.266,-1.308 0,-0.708 -0.468,-1.284 -1.17,-1.284 -0.36,0 -0.66,0.126 -0.9,0.366 0.21,-0.774 0.804,-1.218 1.536,-1.548 z m -0.528,2.19 c 0.444,0 0.714,0.324 0.714,0.768 0,0.456 -0.282,0.816 -0.738,0.816 -0.606,0 -0.84,-0.528 -0.84,-1.08 0.168,-0.312 0.51,-0.504 0.864,-0.504 z m 6.791998,0.204 v 0.93 c -0.294,0.282 -0.702,0.438 -1.146,0.438 -0.96,0 -1.644,-0.636 -1.644,-1.656 0,-0.96 0.696,-1.656 1.644,-1.656 0.48,0 0.924,0.234 1.218,0.564 l 0.408,-0.336 c -0.402,-0.456 -0.978,-0.744 -1.626,-0.744 -1.242,0 -2.256,0.93 -2.256,2.172 0,1.302 0.972,2.172 2.256,2.172 0.69,0 1.32,-0.294 1.722,-0.804 v -1.596 h -1.644 v 0.516 z m 3.642001,1.812 h 0.546 v -3 h -0.546 v 1.992 c -0.216,0.336 -0.546,0.576 -0.894,0.576 -0.264,0 -0.426,-0.096 -0.522,-0.24 -0.144,-0.216 -0.156,-0.534 -0.156,-0.828 v -1.5 h -0.546 v 1.56 c 0,0.456 0.066,0.858 0.27,1.134 0.174,0.234 0.45,0.378 0.87,0.378 0.402,0 0.756,-0.21 0.978,-0.564 z m 2.100009,0 v -3 h -0.546 v 3 z m 0,-3.588 v -0.612 h -0.546 v 0.612 z m 2.424001,1.068 v -0.48 h -0.84 v -0.72 h -0.546 v 0.72 h -0.402 v 0.48 h 0.402 v 1.488 c 0,0.234 0.024,0.456 0.096,0.624 0.126,0.282 0.384,0.468 0.804,0.468 0.198,0 0.408,-0.054 0.558,-0.132 l -0.15,-0.438 c -0.096,0.048 -0.216,0.084 -0.336,0.084 -0.3,0 -0.402,-0.186 -0.42,-0.504 -0.006,-0.09 -0.006,-0.156 -0.006,-0.234 v -1.356 z m 2.964004,2.52 v -1.824 c 0,-0.774 -0.318,-1.248 -1.188,-1.248 -0.414,0 -0.87,0.132 -1.182,0.282 l 0.162,0.456 c 0.24,-0.132 0.606,-0.264 0.954,-0.264 0.492,0 0.708,0.264 0.708,0.72 v 0.108 c -0.258,-0.054 -0.45,-0.066 -0.6,-0.066 -0.66,0 -1.338,0.234 -1.338,0.996 0,0.642 0.51,0.912 1.062,0.912 0.384,0 0.654,-0.114 0.9,-0.39 v 0.318 z m -0.546,-0.744 c -0.24,0.204 -0.504,0.36 -0.81,0.36 -0.318,0 -0.594,-0.132 -0.594,-0.498 0,-0.45 0.492,-0.54 0.864,-0.54 0.15,0 0.318,0.012 0.54,0.06 z m 2.064001,-2.256 h -0.546 v 3 h 0.546 v -2.01 c 0.186,-0.324 0.408,-0.504 0.714,-0.504 0.114,0 0.192,0.018 0.282,0.06 l 0.102,-0.582 c -0.114,-0.024 -0.198,-0.036 -0.324,-0.036 -0.324,0 -0.594,0.246 -0.774,0.57 z"
       id="path16" />
    <path
       style="font-weight:bold;fill:#f8c014"
       d="m 6.5899999,46.269999 v -4.2 h -0.858 v 4.2 z m 3.0659988,-2.814 c -0.294,-0.276 -0.672,-0.414 -1.092,-0.414 -0.576,0 -1.128,0.324 -1.128,0.966 0,0.552 0.414,0.768 0.792,0.93 0.312,0.138 0.6,0.234 0.6,0.456 0,0.192 -0.228,0.276 -0.402,0.276 -0.306,0 -0.504,-0.138 -0.744,-0.372 l -0.486,0.504 c 0.348,0.348 0.78,0.54 1.272,0.54 0.612,0 1.212,-0.318 1.212,-1.014 0,-0.6 -0.516,-0.804 -0.924,-0.972 -0.264,-0.108 -0.498,-0.21 -0.498,-0.408 0,-0.15 0.144,-0.24 0.306,-0.24 0.24,0 0.462,0.12 0.624,0.264 z m 1.5540053,-1.686 h -0.852 v 4.5 h 0.852 v -2.094 c 0.156,-0.258 0.432,-0.402 0.684,-0.402 0.186,0 0.342,0.066 0.42,0.222 0.09,0.18 0.096,0.444 0.096,0.678 v 1.596 h 0.852 v -1.638 c 0,-0.45 -0.036,-0.858 -0.282,-1.176 -0.198,-0.252 -0.498,-0.414 -0.84,-0.414 -0.324,0 -0.678,0.138 -0.93,0.444 z m 5.508,4.5 v -1.896 c 0,-0.822 -0.426,-1.332 -1.302,-1.332 -0.468,0 -0.954,0.126 -1.356,0.324 l 0.228,0.612 c 0.276,-0.144 0.594,-0.276 0.954,-0.276 0.462,0 0.624,0.24 0.624,0.636 v 0.048 c -0.198,-0.042 -0.396,-0.066 -0.57,-0.066 -0.654,0 -1.374,0.246 -1.374,1.02 0,0.648 0.546,1.002 1.134,1.002 0.336,0 0.654,-0.09 0.858,-0.342 l 0.066,0.27 z m -0.852,-0.792 c -0.18,0.162 -0.384,0.27 -0.63,0.27 -0.252,0 -0.48,-0.144 -0.48,-0.42 0,-0.372 0.366,-0.486 0.678,-0.486 0.132,0 0.27,0.018 0.432,0.054 z m 4.302005,0.792 v -1.896 c 0,-0.822 -0.426,-1.332 -1.302,-1.332 -0.468,0 -0.954,0.126 -1.356,0.324 l 0.228,0.612 c 0.276,-0.144 0.594,-0.276 0.954,-0.276 0.462,0 0.624,0.24 0.624,0.636 v 0.048 c -0.198,-0.042 -0.396,-0.066 -0.57,-0.066 -0.654,0 -1.374,0.246 -1.374,1.02 0,0.648 0.546,1.002 1.134,1.002 0.336,0 0.654,-0.09 0.858,-0.342 l 0.066,0.27 z m -0.852,-0.792 c -0.18,0.162 -0.384,0.27 -0.63,0.27 -0.252,0 -0.48,-0.144 -0.48,-0.42 0,-0.372 0.366,-0.486 0.678,-0.486 0.132,0 0.27,0.018 0.432,0.054 z m 1.650004,-2.364 v 3.156 h 0.852 v -2.094 c 0.156,-0.258 0.432,-0.402 0.684,-0.402 0.186,0 0.342,0.066 0.42,0.222 0.09,0.18 0.096,0.444 0.096,0.678 v 1.596 h 0.852 v -1.638 c 0,-0.45 -0.036,-0.858 -0.282,-1.176 -0.198,-0.252 -0.498,-0.414 -0.84,-0.414 -0.348,0 -0.726,0.15 -0.978,0.504 l -0.066,-0.432 z"
       id="path17" />
    <path
       d="m 28.196014,45.627999 c -0.162,0.12 -0.438,0.21 -0.636,0.21 -0.522,0 -0.99,-0.42 -0.99,-1.068 0,-0.594 0.444,-1.068 0.984,-1.068 0.216,0 0.444,0.078 0.612,0.204 l 0.258,-0.45 c -0.24,-0.162 -0.528,-0.258 -0.846,-0.258 -0.876,0 -1.566,0.696 -1.566,1.572 0,0.948 0.678,1.572 1.536,1.572 0.36,0 0.696,-0.114 0.918,-0.294 z m 2.196002,-2.43 c -0.876,0 -1.53,0.696 -1.53,1.572 0,0.876 0.654,1.572 1.53,1.572 0.876,0 1.53,-0.696 1.53,-1.572 0,-0.876 -0.654,-1.572 -1.53,-1.572 z m 0.972,1.572 c 0,0.582 -0.408,1.068 -0.972,1.068 -0.564,0 -0.972,-0.486 -0.972,-1.068 0,-0.582 0.408,-1.068 0.972,-1.068 0.564,0 0.972,0.486 0.972,1.068 z m 5.855999,1.5 v -1.56 c 0,-0.462 -0.066,-0.882 -0.276,-1.158 -0.168,-0.222 -0.426,-0.354 -0.828,-0.354 -0.408,0 -0.786,0.186 -1.044,0.552 -0.018,-0.042 -0.042,-0.096 -0.072,-0.138 -0.186,-0.288 -0.486,-0.414 -0.834,-0.414 -0.348,0 -0.72,0.21 -0.942,0.528 v -0.456 h -0.546 v 3 h 0.546 v -2.016 c 0.198,-0.276 0.522,-0.552 0.828,-0.552 0.228,0 0.372,0.084 0.462,0.21 0.156,0.222 0.162,0.57 0.162,0.858 v 1.5 h 0.546 v -1.56 c 0,-0.18 -0.012,-0.36 -0.036,-0.51 0.222,-0.294 0.54,-0.498 0.828,-0.498 0.258,0 0.42,0.096 0.516,0.24 0.138,0.216 0.144,0.54 0.144,0.828 v 1.5 z m 0.972004,-3 v 4.5 h 0.546 v -1.824 c 0.24,0.246 0.588,0.396 0.942,0.396 0.918,0 1.512,-0.774 1.512,-1.566 0,-0.882 -0.636,-1.578 -1.5,-1.578 -0.36,0 -0.738,0.162 -0.954,0.474 v -0.402 z m 0.546,1.002 c 0.15,-0.372 0.558,-0.57 0.882,-0.57 0.624,0 1.014,0.504 1.014,1.062 0,0.516 -0.33,1.074 -1.026,1.074 -0.312,0 -0.666,-0.162 -0.87,-0.456 z m 3.755997,-2.502 h -0.546 v 4.5 h 0.546 z m 3.588004,3.138 c 0.012,-0.078 0.024,-0.21 0.024,-0.312 0,-0.804 -0.576,-1.398 -1.368,-1.398 -0.834,0 -1.488,0.678 -1.488,1.572 0,0.876 0.534,1.572 1.488,1.572 0.606,0 1.014,-0.222 1.314,-0.702 l -0.396,-0.252 c -0.18,0.342 -0.498,0.486 -0.894,0.486 -0.576,0 -0.93,-0.45 -0.966,-0.966 z m -1.338,-1.242 c 0.45,0 0.774,0.378 0.798,0.804 h -1.704 c 0.108,-0.45 0.42,-0.804 0.906,-0.804 z m 3.533997,0.084 v -0.48 h -0.84 v -0.72 h -0.546 v 0.72 h -0.402 v 0.48 h 0.402 v 1.488 c 0,0.234 0.024,0.456 0.096,0.624 0.126,0.282 0.384,0.468 0.804,0.468 0.198,0 0.408,-0.054 0.558,-0.132 l -0.15,-0.438 c -0.096,0.048 -0.216,0.084 -0.336,0.084 -0.3,0 -0.402,-0.186 -0.42,-0.504 -0.006,-0.09 -0.006,-0.156 -0.006,-0.234 v -1.356 z m 3.240004,1.158 c 0.012,-0.078 0.024,-0.21 0.024,-0.312 0,-0.804 -0.576,-1.398 -1.368,-1.398 -0.834,0 -1.488,0.678 -1.488,1.572 0,0.876 0.534,1.572 1.488,1.572 0.606,0 1.014,-0.222 1.314,-0.702 l -0.396,-0.252 c -0.18,0.342 -0.498,0.486 -0.894,0.486 -0.576,0 -0.93,-0.45 -0.966,-0.966 z m -1.338,-1.242 c 0.45,0 0.774,0.378 0.798,0.804 h -1.704 c 0.108,-0.45 0.42,-0.804 0.906,-0.804 z m 3.365997,2.676 c 0.36,0 0.738,-0.156 0.954,-0.474 v 0.402 h 0.546 v -4.5 h -0.546 v 1.83 c -0.24,-0.246 -0.594,-0.402 -0.942,-0.402 -0.918,0 -1.512,0.774 -1.512,1.572 0,0.876 0.636,1.572 1.5,1.572 z m 0.072,-0.504 c -0.624,0 -1.014,-0.504 -1.014,-1.056 0,-0.522 0.33,-1.08 1.026,-1.08 0.306,0 0.66,0.162 0.87,0.456 v 1.116 c -0.156,0.366 -0.558,0.564 -0.882,0.564 z m 3.935996,-4.068 v 4.5 h 0.546 v -0.324 c 0.24,0.246 0.588,0.396 0.942,0.396 0.918,0 1.512,-0.774 1.512,-1.566 0,-0.882 -0.636,-1.578 -1.5,-1.578 -0.36,0 -0.738,0.162 -0.954,0.474 v -1.902 z m 0.546,2.502 c 0.15,-0.372 0.558,-0.57 0.882,-0.57 0.624,0 1.014,0.504 1.014,1.062 0,0.516 -0.33,1.074 -1.026,1.074 -0.312,0 -0.666,-0.162 -0.87,-0.456 z m 4.487997,-1.074 c -0.876,0 -1.53,0.696 -1.53,1.572 0,0.876 0.654,1.572 1.53,1.572 0.876,0 1.53,-0.696 1.53,-1.572 0,-0.876 -0.654,-1.572 -1.53,-1.572 z m 0.972,1.572 c 0,0.582 -0.408,1.068 -0.972,1.068 -0.564,0 -0.972,-0.486 -0.972,-1.068 0,-0.582 0.408,-1.068 0.972,-1.068 0.564,0 0.972,0.486 0.972,1.068 z m 2.729999,-1.02 v -0.48 h -0.84 v -0.72 h -0.546 v 0.72 h -0.402 v 0.48 h 0.402 v 1.488 c 0,0.234 0.024,0.456 0.096,0.624 0.126,0.282 0.384,0.468 0.804,0.468 0.198,0 0.408,-0.054 0.558,-0.132 l -0.15,-0.438 c -0.096,0.048 -0.216,0.084 -0.336,0.084 -0.3,0 -0.402,-0.186 -0.42,-0.504 -0.006,-0.09 -0.006,-0.156 -0.006,-0.234 v -1.356 z m 1.206004,-1.98 h -0.546 v 4.5 h 0.546 v -1.992 c 0.216,-0.336 0.546,-0.576 0.894,-0.576 0.264,0 0.426,0.096 0.522,0.24 0.144,0.216 0.156,0.534 0.156,0.828 v 1.5 h 0.546 v -1.56 c 0,-0.456 -0.066,-0.858 -0.27,-1.134 -0.174,-0.234 -0.45,-0.378 -0.87,-0.378 -0.402,0 -0.756,0.21 -0.978,0.564 z m 7.84801,2.688 v 0.93 c -0.294,0.282 -0.702,0.438 -1.146,0.438 -0.96,0 -1.644,-0.636 -1.644,-1.656 0,-0.96 0.696,-1.656 1.644,-1.656 0.48,0 0.924,0.234 1.218,0.564 l 0.408,-0.336 c -0.402,-0.456 -0.978,-0.744 -1.626,-0.744 -1.242,0 -2.256,0.93 -2.256,2.172 0,1.302 0.972,2.172 2.256,2.172 0.69,0 1.32,-0.294 1.722,-0.804 v -1.596 h -1.644 v 0.516 z m 2.105993,-1.188 h -0.546 v 3 h 0.546 v -2.01 c 0.186,-0.324 0.408,-0.504 0.714,-0.504 0.114,0 0.192,0.018 0.282,0.06 l 0.102,-0.582 c -0.114,-0.024 -0.198,-0.036 -0.324,-0.036 -0.324,0 -0.594,0.246 -0.774,0.57 z m 3.899998,3 v -1.824 c 0,-0.774 -0.318,-1.248 -1.188,-1.248 -0.414,0 -0.87,0.132 -1.182,0.282 l 0.162,0.456 c 0.24,-0.132 0.606,-0.264 0.954,-0.264 0.492,0 0.708,0.264 0.708,0.72 v 0.108 c -0.258,-0.054 -0.45,-0.066 -0.6,-0.066 -0.66,0 -1.338,0.234 -1.338,0.996 0,0.642 0.51,0.912 1.062,0.912 0.384,0 0.654,-0.114 0.9,-0.39 v 0.318 z m -0.546,-0.744 c -0.24,0.204 -0.504,0.36 -0.81,0.36 -0.318,0 -0.594,-0.132 -0.594,-0.498 0,-0.45 0.492,-0.54 0.864,-0.54 0.15,0 0.318,0.012 0.54,0.06 z m 2.766001,0.816 c 0.36,0 0.738,-0.156 0.954,-0.474 v 0.402 h 0.546 v -4.5 h -0.546 v 1.83 c -0.24,-0.246 -0.594,-0.402 -0.942,-0.402 -0.918,0 -1.512,0.774 -1.512,1.572 0,0.876 0.636,1.572 1.5,1.572 z m 0.072,-0.504 c -0.624,0 -1.014,-0.504 -1.014,-1.056 0,-0.522 0.33,-1.08 1.026,-1.08 0.306,0 0.66,0.162 0.87,0.456 v 1.116 c -0.156,0.366 -0.558,0.564 -0.882,0.564 z m 5.015997,-0.93 c 0.012,-0.078 0.024,-0.21 0.024,-0.312 0,-0.804 -0.576,-1.398 -1.368,-1.398 -0.834,0 -1.488,0.678 -1.488,1.572 0,0.876 0.534,1.572 1.488,1.572 0.606,0 1.014,-0.222 1.314,-0.702 l -0.396,-0.252 c -0.18,0.342 -0.498,0.486 -0.894,0.486 -0.576,0 -0.93,-0.45 -0.966,-0.966 z m -1.338,-1.242 c 0.45,0 0.774,0.378 0.798,0.804 h -1.704 c 0.108,-0.45 0.42,-0.804 0.906,-0.804 z m 4.038,0.852 c 0.186,-0.042 0.324,-0.042 0.462,-0.042 0.468,0 0.846,0.282 0.846,0.684 0,0.462 -0.384,0.678 -0.798,0.678 -0.312,0 -0.612,-0.12 -0.78,-0.408 l -0.444,0.246 c 0.24,0.45 0.768,0.666 1.266,0.666 0.726,0 1.332,-0.456 1.332,-1.23 0,-0.462 -0.294,-0.846 -0.702,-0.984 0.3,-0.156 0.498,-0.486 0.498,-0.846 0,-0.648 -0.498,-1.068 -1.23,-1.068 -0.564,0 -0.99,0.306 -1.146,0.738 l 0.48,0.198 c 0.096,-0.282 0.36,-0.432 0.654,-0.432 0.39,0 0.666,0.24 0.666,0.57 0,0.288 -0.222,0.51 -0.534,0.594 -0.156,0.042 -0.318,0.054 -0.57,0.06 z m 6.995991,-1.194 c 0,-0.918 -0.804,-1.254 -1.482,-1.254 h -1.254 v 4.2 h 0.576 v -1.68 h 0.678 c 0.684,0 1.482,-0.336 1.482,-1.266 z m -0.612,0.018 c 0,0.54 -0.438,0.732 -1.02,0.732 h -0.528 v -1.488 h 0.648 c 0.534,0 0.9,0.282 0.9,0.756 z m 1.842,2.928 v -3 h -0.546 v 3 z m 0,-3.588 v -0.612 h -0.546 v 0.612 z m 3.312006,3.588 v -1.824 c 0,-0.774 -0.318,-1.248 -1.188,-1.248 -0.414,0 -0.87,0.132 -1.182,0.282 l 0.162,0.456 c 0.24,-0.132 0.606,-0.264 0.954,-0.264 0.492,0 0.708,0.264 0.708,0.72 v 0.108 c -0.258,-0.054 -0.45,-0.066 -0.6,-0.066 -0.66,0 -1.338,0.234 -1.338,0.996 0,0.642 0.51,0.912 1.062,0.912 0.384,0 0.654,-0.114 0.9,-0.39 v 0.318 z m -0.546,-0.744 c -0.24,0.204 -0.504,0.36 -0.81,0.36 -0.318,0 -0.594,-0.132 -0.594,-0.498 0,-0.45 0.492,-0.54 0.864,-0.54 0.15,0 0.318,0.012 0.54,0.06 z m 1.518,-2.256 v 3 h 0.546 v -1.992 c 0.216,-0.336 0.546,-0.576 0.894,-0.576 0.264,0 0.426,0.096 0.522,0.24 0.144,0.216 0.156,0.534 0.156,0.828 v 1.5 h 0.546 v -1.56 c 0,-0.456 -0.066,-0.858 -0.27,-1.134 -0.174,-0.234 -0.45,-0.378 -0.87,-0.378 -0.402,0 -0.756,0.21 -0.978,0.564 v -0.492 z m 4.914,-0.072 c -0.876,0 -1.53,0.696 -1.53,1.572 0,0.876 0.654,1.572 1.53,1.572 0.876,0 1.53,-0.696 1.53,-1.572 0,-0.876 -0.654,-1.572 -1.53,-1.572 z m 0.972,1.572 c 0,0.582 -0.408,1.068 -0.972,1.068 -0.564,0 -0.972,-0.486 -0.972,-1.068 0,-0.582 0.408,-1.068 0.972,-1.068 0.564,0 0.972,0.486 0.972,1.068 z m 5.11799,1.5 v -1.824 c 0,-0.774 -0.318,-1.248 -1.188,-1.248 -0.414,0 -0.87,0.132 -1.182,0.282 l 0.162,0.456 c 0.24,-0.132 0.606,-0.264 0.954,-0.264 0.492,0 0.708,0.264 0.708,0.72 v 0.108 c -0.258,-0.054 -0.45,-0.066 -0.6,-0.066 -0.66,0 -1.338,0.234 -1.338,0.996 0,0.642 0.51,0.912 1.062,0.912 0.384,0 0.654,-0.114 0.9,-0.39 v 0.318 z m -0.546,-0.744 c -0.24,0.204 -0.504,0.36 -0.81,0.36 -0.318,0 -0.594,-0.132 -0.594,-0.498 0,-0.45 0.492,-0.54 0.864,-0.54 0.15,0 0.318,0.012 0.54,0.06 z m 1.518,-2.256 v 3 h 0.546 v -1.992 c 0.216,-0.336 0.546,-0.576 0.894,-0.576 0.264,0 0.426,0.096 0.522,0.24 0.144,0.216 0.156,0.534 0.156,0.828 v 1.5 h 0.546 v -1.56 c 0,-0.456 -0.066,-0.858 -0.27,-1.134 -0.174,-0.234 -0.45,-0.378 -0.87,-0.378 -0.402,0 -0.756,0.21 -0.978,0.564 v -0.492 z m 4.88401,3.072 c 0.36,0 0.738,-0.156 0.954,-0.474 v 0.402 h 0.546 v -4.5 h -0.546 v 1.83 c -0.24,-0.246 -0.594,-0.402 -0.942,-0.402 -0.918,0 -1.512,0.774 -1.512,1.572 0,0.876 0.636,1.572 1.5,1.572 z m 0.072,-0.504 c -0.624,0 -1.014,-0.504 -1.014,-1.056 0,-0.522 0.33,-1.08 1.026,-1.08 0.306,0 0.66,0.162 0.87,0.456 v 1.116 c -0.156,0.366 -0.558,0.564 -0.882,0.564 z m 7.19399,-1.38 v 0.93 c -0.294,0.282 -0.702,0.438 -1.146,0.438 -0.96,0 -1.644,-0.636 -1.644,-1.656 0,-0.96 0.696,-1.656 1.644,-1.656 0.48,0 0.924,0.234 1.218,0.564 l 0.408,-0.336 c -0.402,-0.456 -0.978,-0.744 -1.626,-0.744 -1.242,0 -2.256,0.93 -2.256,2.172 0,1.302 0.972,2.172 2.256,2.172 0.69,0 1.32,-0.294 1.722,-0.804 v -1.596 h -1.644 v 0.516 z m 2.106,-1.188 h -0.546 v 3 h 0.546 v -2.01 c 0.186,-0.324 0.408,-0.504 0.714,-0.504 0.114,0 0.192,0.018 0.282,0.06 l 0.102,-0.582 c -0.114,-0.024 -0.198,-0.036 -0.324,-0.036 -0.324,0 -0.594,0.246 -0.774,0.57 z m 3.90001,3 v -1.824 c 0,-0.774 -0.318,-1.248 -1.188,-1.248 -0.414,0 -0.87,0.132 -1.182,0.282 l 0.162,0.456 c 0.24,-0.132 0.606,-0.264 0.954,-0.264 0.492,0 0.708,0.264 0.708,0.72 v 0.108 c -0.258,-0.054 -0.45,-0.066 -0.6,-0.066 -0.66,0 -1.338,0.234 -1.338,0.996 0,0.642 0.51,0.912 1.062,0.912 0.384,0 0.654,-0.114 0.9,-0.39 v 0.318 z m -0.546,-0.744 c -0.24,0.204 -0.504,0.36 -0.81,0.36 -0.318,0 -0.594,-0.132 -0.594,-0.498 0,-0.45 0.492,-0.54 0.864,-0.54 0.15,0 0.318,0.012 0.54,0.06 z m 2.766,0.816 c 0.36,0 0.738,-0.156 0.954,-0.474 v 0.402 h 0.546 v -4.5 h -0.546 v 1.83 c -0.24,-0.246 -0.594,-0.402 -0.942,-0.402 -0.918,0 -1.512,0.774 -1.512,1.572 0,0.876 0.636,1.572 1.5,1.572 z m 0.072,-0.504 c -0.624,0 -1.014,-0.504 -1.014,-1.056 0,-0.522 0.33,-1.08 1.026,-1.08 0.306,0 0.66,0.162 0.87,0.456 v 1.116 c -0.156,0.366 -0.558,0.564 -0.882,0.564 z m 5.01598,-0.93 c 0.012,-0.078 0.024,-0.21 0.024,-0.312 0,-0.804 -0.576,-1.398 -1.368,-1.398 -0.834,0 -1.488,0.678 -1.488,1.572 0,0.876 0.534,1.572 1.488,1.572 0.606,0 1.014,-0.222 1.314,-0.702 l -0.396,-0.252 c -0.18,0.342 -0.498,0.486 -0.894,0.486 -0.576,0 -0.93,-0.45 -0.966,-0.966 z m -1.338,-1.242 c 0.45,0 0.774,0.378 0.798,0.804 h -1.704 c 0.108,-0.45 0.42,-0.804 0.906,-0.804 z m 5.712,-1.38 h -2.052 c -0.03,0.576 -0.078,1.452 -0.138,2.04 l 0.408,0.222 c 0.168,-0.174 0.384,-0.252 0.618,-0.252 0.462,0 0.804,0.294 0.804,0.738 0,0.444 -0.306,0.804 -0.822,0.804 -0.312,0 -0.594,-0.144 -0.744,-0.414 l -0.45,0.252 c 0.222,0.408 0.774,0.666 1.266,0.666 0.774,0 1.326,-0.57 1.326,-1.326 0,-0.696 -0.558,-1.224 -1.218,-1.224 -0.198,0 -0.408,0.03 -0.588,0.114 0.036,-0.33 0.054,-0.762 0.072,-1.116 h 1.518 z m 5.74801,3.672 -0.306,-0.426 c -0.294,0.198 -0.6,0.294 -0.93,0.294 -0.96,0 -1.644,-0.636 -1.644,-1.656 0,-0.96 0.696,-1.656 1.644,-1.656 0.312,0 0.606,0.096 0.858,0.252 l 0.27,-0.444 c -0.33,-0.204 -0.714,-0.324 -1.128,-0.324 -1.242,0 -2.256,0.93 -2.256,2.172 0,1.326 1.002,2.172 2.256,2.172 0.45,0 0.876,-0.138 1.236,-0.384 z m 1.242,-4.188 h -0.546 v 4.5 h 0.546 z m 3.312,4.5 v -1.824 c 0,-0.774 -0.318,-1.248 -1.188,-1.248 -0.414,0 -0.87,0.132 -1.182,0.282 l 0.162,0.456 c 0.24,-0.132 0.606,-0.264 0.954,-0.264 0.492,0 0.708,0.264 0.708,0.72 v 0.108 c -0.258,-0.054 -0.45,-0.066 -0.6,-0.066 -0.66,0 -1.338,0.234 -1.338,0.996 0,0.642 0.51,0.912 1.062,0.912 0.384,0 0.654,-0.114 0.9,-0.39 v 0.318 z m -0.546,-0.744 c -0.24,0.204 -0.504,0.36 -0.81,0.36 -0.318,0 -0.594,-0.132 -0.594,-0.498 0,-0.45 0.492,-0.54 0.864,-0.54 0.15,0 0.318,0.012 0.54,0.06 z m 2.064,-2.256 h -0.546 v 3 h 0.546 v -2.01 c 0.186,-0.324 0.408,-0.504 0.714,-0.504 0.114,0 0.192,0.018 0.282,0.06 l 0.102,-0.582 c -0.114,-0.024 -0.198,-0.036 -0.324,-0.036 -0.324,0 -0.594,0.246 -0.774,0.57 z m 2.142,3 v -3 h -0.546 v 3 z m 0,-3.588 v -0.612 h -0.546 v 0.612 z m 1.008,0.588 v 3 h 0.546 v -1.992 c 0.216,-0.336 0.546,-0.576 0.894,-0.576 0.264,0 0.426,0.096 0.522,0.24 0.144,0.216 0.156,0.534 0.156,0.828 v 1.5 h 0.546 v -1.56 c 0,-0.456 -0.066,-0.858 -0.27,-1.134 -0.174,-0.234 -0.45,-0.378 -0.87,-0.378 -0.402,0 -0.756,0.21 -0.978,0.564 v -0.492 z m 6.21602,1.638 c 0.012,-0.078 0.024,-0.21 0.024,-0.312 0,-0.804 -0.576,-1.398 -1.368,-1.398 -0.834,0 -1.488,0.678 -1.488,1.572 0,0.876 0.534,1.572 1.488,1.572 0.606,0 1.014,-0.222 1.314,-0.702 l -0.396,-0.252 c -0.18,0.342 -0.498,0.486 -0.894,0.486 -0.576,0 -0.93,-0.45 -0.966,-0.966 z m -1.338,-1.242 c 0.45,0 0.774,0.378 0.798,0.804 h -1.704 c 0.108,-0.45 0.42,-0.804 0.906,-0.804 z m 3.53398,0.084 v -0.48 h -0.84 v -0.72 h -0.546 v 0.72 h -0.402 v 0.48 h 0.402 v 1.488 c 0,0.234 0.024,0.456 0.096,0.624 0.126,0.282 0.384,0.468 0.804,0.468 0.198,0 0.408,-0.054 0.558,-0.132 l -0.15,-0.438 c -0.096,0.048 -0.216,0.084 -0.336,0.084 -0.3,0 -0.402,-0.186 -0.42,-0.504 -0.006,-0.09 -0.006,-0.156 -0.006,-0.234 v -1.356 z"
       id="path18" />
    <path
       style="font-weight:bold;fill:#f8c014"
       d="m 9.3259999,53.769999 -1.578,-4.2 h -0.696 l -1.716,4.2 h 0.954 l 0.282,-0.78 h 1.494 l 0.27,0.78 z m -1.992,-2.892 h 0.006 l 0.486,1.41 h -1.002 z m 3.2159951,-0.264 h -0.738 v 3.156 h 0.852 v -2.136 c 0.126,-0.21 0.348,-0.348 0.594,-0.348 0.108,0 0.21,0.024 0.3,0.072 l 0.204,-0.744 c -0.114,-0.042 -0.252,-0.072 -0.408,-0.072 -0.312,0 -0.558,0.198 -0.738,0.492 z m 2.394003,-0.438 v -0.726 h -0.852 v 0.726 z m 0,0.438 h -0.852 v 3.306 c 0,0.264 -0.024,0.48 -0.318,0.48 -0.138,0 -0.258,-0.03 -0.366,-0.078 l -0.228,0.678 c 0.21,0.084 0.438,0.132 0.684,0.132 0.432,0 0.714,-0.132 0.876,-0.36 0.144,-0.192 0.204,-0.45 0.204,-0.78 z m 3.707996,3.156 v -3.156 h -0.852 v 2.094 c -0.156,0.258 -0.432,0.402 -0.684,0.402 -0.186,0 -0.342,-0.066 -0.42,-0.222 -0.09,-0.18 -0.096,-0.444 -0.096,-0.678 v -1.596 h -0.852 v 1.638 c 0,0.45 0.036,0.858 0.282,1.176 0.198,0.252 0.498,0.414 0.84,0.414 0.348,0 0.726,-0.15 0.978,-0.504 l 0.066,0.432 z m 0.828,-3.156 v 3.156 h 0.852 v -2.094 c 0.156,-0.258 0.432,-0.402 0.684,-0.402 0.186,0 0.342,0.066 0.42,0.222 0.09,0.18 0.096,0.444 0.096,0.678 v 1.596 h 0.852 v -1.638 c 0,-0.45 -0.036,-0.858 -0.282,-1.176 -0.198,-0.252 -0.498,-0.414 -0.84,-0.414 -0.348,0 -0.726,0.15 -0.978,0.504 l -0.066,-0.432 z"
       id="path19" />
    <path
       d="m 25.081994,53.769999 v -1.824 c 0,-0.774 -0.318,-1.248 -1.188,-1.248 -0.414,0 -0.87,0.132 -1.182,0.282 l 0.162,0.456 c 0.24,-0.132 0.606,-0.264 0.954,-0.264 0.492,0 0.708,0.264 0.708,0.72 v 0.108 c -0.258,-0.054 -0.45,-0.066 -0.6,-0.066 -0.66,0 -1.338,0.234 -1.338,0.996 0,0.642 0.51,0.912 1.062,0.912 0.384,0 0.654,-0.114 0.9,-0.39 v 0.318 z m -0.546,-0.744 c -0.24,0.204 -0.504,0.36 -0.81,0.36 -0.318,0 -0.594,-0.132 -0.594,-0.498 0,-0.45 0.492,-0.54 0.864,-0.54 0.15,0 0.318,0.012 0.54,0.06 z m 3.449998,0.102 c -0.162,0.12 -0.438,0.21 -0.636,0.21 -0.522,0 -0.99,-0.42 -0.99,-1.068 0,-0.594 0.444,-1.068 0.984,-1.068 0.216,0 0.444,0.078 0.612,0.204 l 0.258,-0.45 c -0.24,-0.162 -0.528,-0.258 -0.846,-0.258 -0.876,0 -1.566,0.696 -1.566,1.572 0,0.948 0.678,1.572 1.536,1.572 0.36,0 0.696,-0.114 0.918,-0.294 z m 1.464002,-3.858 h -0.546 v 4.5 h 0.546 v -1.992 c 0.216,-0.336 0.546,-0.576 0.894,-0.576 0.264,0 0.426,0.096 0.522,0.24 0.144,0.216 0.156,0.534 0.156,0.828 v 1.5 h 0.546 v -1.56 c 0,-0.456 -0.066,-0.858 -0.27,-1.134 -0.174,-0.234 -0.45,-0.378 -0.87,-0.378 -0.402,0 -0.756,0.21 -0.978,0.564 z m 3.636005,4.5 v -3 h -0.546 v 3 z m 0,-3.588 v -0.612 h -0.546 v 0.612 z m 3.588005,2.226 c 0.012,-0.078 0.024,-0.21 0.024,-0.312 0,-0.804 -0.576,-1.398 -1.368,-1.398 -0.834,0 -1.488,0.678 -1.488,1.572 0,0.876 0.534,1.572 1.488,1.572 0.606,0 1.014,-0.222 1.314,-0.702 l -0.396,-0.252 c -0.18,0.342 -0.498,0.486 -0.894,0.486 -0.576,0 -0.93,-0.45 -0.966,-0.966 z m -1.338,-1.242 c 0.45,0 0.774,0.378 0.798,0.804 h -1.704 c 0.108,-0.45 0.42,-0.804 0.906,-0.804 z m 3.869997,-0.396 -0.792,2.322 h -0.012 l -0.798,-2.322 h -0.606 l 1.134,3 h 0.492 l 1.164,-3 z m 3.702,1.638 c 0.012,-0.078 0.024,-0.21 0.024,-0.312 0,-0.804 -0.576,-1.398 -1.368,-1.398 -0.834,0 -1.488,0.678 -1.488,1.572 0,0.876 0.534,1.572 1.488,1.572 0.606,0 1.014,-0.222 1.314,-0.702 l -0.396,-0.252 c -0.18,0.342 -0.498,0.486 -0.894,0.486 -0.576,0 -0.93,-0.45 -0.966,-0.966 z m -1.338,-1.242 c 0.45,0 0.774,0.378 0.798,0.804 h -1.704 c 0.108,-0.45 0.42,-0.804 0.906,-0.804 z m 3.365997,2.676 c 0.36,0 0.738,-0.156 0.954,-0.474 v 0.402 h 0.546 v -4.5 h -0.546 v 1.83 c -0.24,-0.246 -0.594,-0.402 -0.942,-0.402 -0.918,0 -1.512,0.774 -1.512,1.572 0,0.876 0.636,1.572 1.5,1.572 z m 0.072,-0.504 c -0.624,0 -1.014,-0.504 -1.014,-1.056 0,-0.522 0.33,-1.08 1.026,-1.08 0.306,0 0.66,0.162 0.87,0.456 v 1.116 c -0.156,0.366 -0.558,0.564 -0.882,0.564 z m 4.001997,0.432 h 1.074 c 1.14,0 2.316,-0.564 2.316,-2.118 0,-1.518 -1.188,-2.082 -2.256,-2.082 h -1.134 z m 2.778,-2.064 c 0,1.17 -0.804,1.548 -2.004,1.548 h -0.198 v -3.168 h 0.45 c 1.104,0 1.752,0.558 1.752,1.62 z m 2.021996,2.064 v -3 h -0.546 v 3 z m 0,-3.588 v -0.612 h -0.546 v 0.612 z m 2.796004,0.846 c -0.24,-0.216 -0.582,-0.33 -0.924,-0.33 -0.498,0 -0.966,0.288 -0.966,0.894 0,0.54 0.462,0.714 0.858,0.87 0.3,0.12 0.576,0.228 0.576,0.462 0,0.312 -0.246,0.462 -0.54,0.462 -0.24,0 -0.456,-0.108 -0.654,-0.318 l -0.384,0.306 c 0.234,0.306 0.624,0.468 1.032,0.468 0.564,0 1.086,-0.27 1.086,-0.942 0,-0.522 -0.486,-0.744 -0.876,-0.894 -0.288,-0.114 -0.576,-0.228 -0.576,-0.456 0,-0.234 0.174,-0.396 0.45,-0.396 0.204,0 0.456,0.102 0.594,0.222 z m 2.334002,0.222 v -0.48 h -0.84 v -0.72 h -0.546 v 0.72 h -0.402 v 0.48 h 0.402 v 1.488 c 0,0.234 0.024,0.456 0.096,0.624 0.126,0.282 0.384,0.468 0.804,0.468 0.198,0 0.408,-0.054 0.558,-0.132 l -0.15,-0.438 c -0.096,0.048 -0.216,0.084 -0.336,0.084 -0.3,0 -0.402,-0.186 -0.42,-0.504 -0.006,-0.09 -0.006,-0.156 -0.006,-0.234 v -1.356 z m 1.206004,2.52 v -3 h -0.546 v 3 z m 0,-3.588 v -0.612 h -0.546 v 0.612 z m 1.008004,0.588 v 3 h 0.546 v -1.992 c 0.216,-0.336 0.546,-0.576 0.894,-0.576 0.264,0 0.426,0.096 0.522,0.24 0.144,0.216 0.156,0.534 0.156,0.828 v 1.5 h 0.546 v -1.56 c 0,-0.456 -0.066,-0.858 -0.27,-1.134 -0.174,-0.234 -0.45,-0.378 -0.87,-0.378 -0.402,0 -0.756,0.21 -0.978,0.564 v -0.492 z m 5.568006,2.358 c -0.162,0.12 -0.438,0.21 -0.636,0.21 -0.522,0 -0.99,-0.42 -0.99,-1.068 0,-0.594 0.444,-1.068 0.984,-1.068 0.216,0 0.444,0.078 0.612,0.204 l 0.258,-0.45 c -0.24,-0.162 -0.528,-0.258 -0.846,-0.258 -0.876,0 -1.566,0.696 -1.566,1.572 0,0.948 0.678,1.572 1.536,1.572 0.36,0 0.696,-0.114 0.918,-0.294 z m 2.423998,-1.878 v -0.48 h -0.84 v -0.72 h -0.546 v 0.72 h -0.402 v 0.48 h 0.402 v 1.488 c 0,0.234 0.024,0.456 0.096,0.624 0.126,0.282 0.384,0.468 0.804,0.468 0.198,0 0.408,-0.054 0.558,-0.132 l -0.15,-0.438 c -0.096,0.048 -0.216,0.084 -0.336,0.084 -0.3,0 -0.402,-0.186 -0.42,-0.504 -0.006,-0.09 -0.006,-0.156 -0.006,-0.234 v -1.356 z m 1.206001,2.52 v -3 h -0.546 v 3 z m 0,-3.588 v -0.612 h -0.546 v 0.612 z m 2.286008,0.516 c -0.876,0 -1.53,0.696 -1.53,1.572 0,0.876 0.654,1.572 1.53,1.572 0.876,0 1.53,-0.696 1.53,-1.572 0,-0.876 -0.654,-1.572 -1.53,-1.572 z m 0.972,1.572 c 0,0.582 -0.408,1.068 -0.972,1.068 -0.564,0 -0.972,-0.486 -0.972,-1.068 0,-0.582 0.408,-1.068 0.972,-1.068 0.564,0 0.972,0.486 0.972,1.068 z m 1.314003,-1.5 v 3 h 0.546 v -1.992 c 0.216,-0.336 0.546,-0.576 0.894,-0.576 0.264,0 0.426,0.096 0.522,0.24 0.144,0.216 0.156,0.534 0.156,0.828 v 1.5 h 0.546 v -1.56 c 0,-0.456 -0.066,-0.858 -0.27,-1.134 -0.174,-0.234 -0.45,-0.378 -0.87,-0.378 -0.402,0 -0.756,0.21 -0.978,0.564 v -0.492 z m 5.682002,3 v -3 h -0.546 v 3 z m 0,-3.588 v -0.612 h -0.546 v 0.612 z m 1.008,0.588 v 3 h 0.546 v -1.992 c 0.216,-0.336 0.546,-0.576 0.894,-0.576 0.264,0 0.426,0.096 0.522,0.24 0.144,0.216 0.156,0.534 0.156,0.828 v 1.5 h 0.546 v -1.56 c 0,-0.456 -0.066,-0.858 -0.27,-1.134 -0.174,-0.234 -0.45,-0.378 -0.87,-0.378 -0.402,0 -0.756,0.21 -0.978,0.564 v -0.492 z m 8.39401,1.188 v 0.93 c -0.294,0.282 -0.702,0.438 -1.146,0.438 -0.96,0 -1.644,-0.636 -1.644,-1.656 0,-0.96 0.696,-1.656 1.644,-1.656 0.48,0 0.924,0.234 1.218,0.564 l 0.408,-0.336 c -0.402,-0.456 -0.978,-0.744 -1.626,-0.744 -1.242,0 -2.256,0.93 -2.256,2.172 0,1.302 0.972,2.172 2.256,2.172 0.69,0 1.32,-0.294 1.722,-0.804 v -1.596 h -1.644 v 0.516 z m 2.106001,-1.188 h -0.546 v 3 h 0.546 v -2.01 c 0.186,-0.324 0.408,-0.504 0.714,-0.504 0.114,0 0.192,0.018 0.282,0.06 l 0.102,-0.582 c -0.114,-0.024 -0.198,-0.036 -0.324,-0.036 -0.324,0 -0.594,0.246 -0.774,0.57 z m 3.899998,3 v -1.824 c 0,-0.774 -0.318,-1.248 -1.188,-1.248 -0.414,0 -0.87,0.132 -1.182,0.282 l 0.162,0.456 c 0.24,-0.132 0.606,-0.264 0.954,-0.264 0.492,0 0.708,0.264 0.708,0.72 v 0.108 c -0.258,-0.054 -0.45,-0.066 -0.6,-0.066 -0.66,0 -1.338,0.234 -1.338,0.996 0,0.642 0.51,0.912 1.062,0.912 0.384,0 0.654,-0.114 0.9,-0.39 v 0.318 z m -0.546,-0.744 c -0.24,0.204 -0.504,0.36 -0.81,0.36 -0.318,0 -0.594,-0.132 -0.594,-0.498 0,-0.45 0.492,-0.54 0.864,-0.54 0.15,0 0.318,0.012 0.54,0.06 z m 2.766001,0.816 c 0.36,0 0.738,-0.156 0.954,-0.474 v 0.402 h 0.546 v -4.5 h -0.546 v 1.83 c -0.24,-0.246 -0.594,-0.402 -0.942,-0.402 -0.918,0 -1.512,0.774 -1.512,1.572 0,0.876 0.636,1.572 1.5,1.572 z m 0.072,-0.504 c -0.624,0 -1.014,-0.504 -1.014,-1.056 0,-0.522 0.33,-1.08 1.026,-1.08 0.306,0 0.66,0.162 0.87,0.456 v 1.116 c -0.156,0.366 -0.558,0.564 -0.882,0.564 z m 5.015997,-0.93 c 0.012,-0.078 0.024,-0.21 0.024,-0.312 0,-0.804 -0.576,-1.398 -1.368,-1.398 -0.834,0 -1.488,0.678 -1.488,1.572 0,0.876 0.534,1.572 1.488,1.572 0.606,0 1.014,-0.222 1.314,-0.702 l -0.396,-0.252 c -0.18,0.342 -0.498,0.486 -0.894,0.486 -0.576,0 -0.93,-0.45 -0.966,-0.966 z m -1.338,-1.242 c 0.45,0 0.774,0.378 0.798,0.804 h -1.704 c 0.108,-0.45 0.42,-0.804 0.906,-0.804 z m 5.31599,-1.602 c -1.08,0.438 -1.962,1.416 -1.962,2.688 0,0.834 0.54,1.59 1.458,1.59 0.732,0 1.266,-0.57 1.266,-1.308 0,-0.708 -0.468,-1.284 -1.17,-1.284 -0.36,0 -0.66,0.126 -0.9,0.366 0.21,-0.774 0.804,-1.218 1.536,-1.548 z m -0.528,2.19 c 0.444,0 0.714,0.324 0.714,0.768 0,0.456 -0.282,0.816 -0.738,0.816 -0.606,0 -0.84,-0.528 -0.84,-1.08 0.168,-0.312 0.51,-0.504 0.864,-0.504 z m 6.336,-0.93 c 0,-0.918 -0.804,-1.254 -1.482,-1.254 h -1.254 v 4.2 h 0.576 v -1.68 h 0.678 c 0.684,0 1.482,-0.336 1.482,-1.266 z m -0.612,0.018 c 0,0.54 -0.438,0.732 -1.02,0.732 h -0.528 v -1.488 h 0.648 c 0.534,0 0.9,0.282 0.9,0.756 z m 1.842,2.928 v -3 h -0.546 v 3 z m 0,-3.588 v -0.612 h -0.546 v 0.612 z m 3.31201,3.588 v -1.824 c 0,-0.774 -0.318,-1.248 -1.188,-1.248 -0.414,0 -0.87,0.132 -1.182,0.282 l 0.162,0.456 c 0.24,-0.132 0.606,-0.264 0.954,-0.264 0.492,0 0.708,0.264 0.708,0.72 v 0.108 c -0.258,-0.054 -0.45,-0.066 -0.6,-0.066 -0.66,0 -1.338,0.234 -1.338,0.996 0,0.642 0.51,0.912 1.062,0.912 0.384,0 0.654,-0.114 0.9,-0.39 v 0.318 z m -0.546,-0.744 c -0.24,0.204 -0.504,0.36 -0.81,0.36 -0.318,0 -0.594,-0.132 -0.594,-0.498 0,-0.45 0.492,-0.54 0.864,-0.54 0.15,0 0.318,0.012 0.54,0.06 z m 1.51799,-2.256 v 3 h 0.546 v -1.992 c 0.216,-0.336 0.546,-0.576 0.894,-0.576 0.264,0 0.426,0.096 0.522,0.24 0.144,0.216 0.156,0.534 0.156,0.828 v 1.5 h 0.546 v -1.56 c 0,-0.456 -0.066,-0.858 -0.27,-1.134 -0.174,-0.234 -0.45,-0.378 -0.87,-0.378 -0.402,0 -0.756,0.21 -0.978,0.564 v -0.492 z m 4.91401,-0.072 c -0.876,0 -1.53,0.696 -1.53,1.572 0,0.876 0.654,1.572 1.53,1.572 0.876,0 1.53,-0.696 1.53,-1.572 0,-0.876 -0.654,-1.572 -1.53,-1.572 z m 0.972,1.572 c 0,0.582 -0.408,1.068 -0.972,1.068 -0.564,0 -0.972,-0.486 -0.972,-1.068 0,-0.582 0.408,-1.068 0.972,-1.068 0.564,0 0.972,0.486 0.972,1.068 z"
       id="path20" />
    <path
       style="font-weight:bold;fill:#f8c014"
       d="m 9.3259999,61.269999 -1.578,-4.2 h -0.696 l -1.716,4.2 h 0.954 l 0.282,-0.78 h 1.494 l 0.27,0.78 z m -1.992,-2.892 h 0.006 l 0.486,1.41 h -1.002 z m 5.1299951,2.892 v -1.896 c 0,-0.822 -0.426,-1.332 -1.302,-1.332 -0.468,0 -0.954,0.126 -1.356,0.324 l 0.228,0.612 c 0.276,-0.144 0.594,-0.276 0.954,-0.276 0.462,0 0.624,0.24 0.624,0.636 v 0.048 c -0.198,-0.042 -0.396,-0.066 -0.57,-0.066 -0.654,0 -1.374,0.246 -1.374,1.02 0,0.648 0.546,1.002 1.134,1.002 0.336,0 0.654,-0.09 0.858,-0.342 l 0.066,0.27 z m -0.852,-0.792 c -0.18,0.162 -0.384,0.27 -0.63,0.27 -0.252,0 -0.48,-0.144 -0.48,-0.42 0,-0.372 0.366,-0.486 0.678,-0.486 0.132,0 0.27,0.018 0.432,0.054 z m 1.254005,-2.364 1.116,2.97 -0.504,1.338 0.762,0.294 1.776,-4.602 h -0.924 l -0.648,1.878 h -0.012 l -0.636,-1.878 z m 6.462,3.156 v -3.156 h -0.852 v 2.094 c -0.156,0.258 -0.432,0.402 -0.684,0.402 -0.186,0 -0.342,-0.066 -0.42,-0.222 -0.09,-0.18 -0.096,-0.444 -0.096,-0.678 v -1.596 h -0.852 v 1.638 c 0,0.45 0.036,0.858 0.282,1.176 0.198,0.252 0.498,0.414 0.84,0.414 0.348,0 0.726,-0.15 0.978,-0.504 l 0.066,0.432 z m 3.012001,-2.814 c -0.294,-0.276 -0.672,-0.414 -1.092,-0.414 -0.576,0 -1.128,0.324 -1.128,0.966 0,0.552 0.414,0.768 0.792,0.93 0.312,0.138 0.6,0.234 0.6,0.456 0,0.192 -0.228,0.276 -0.402,0.276 -0.306,0 -0.504,-0.138 -0.744,-0.372 l -0.486,0.504 c 0.348,0.348 0.78,0.54 1.272,0.54 0.612,0 1.212,-0.318 1.212,-1.014 0,-0.6 -0.516,-0.804 -0.924,-0.972 -0.264,-0.108 -0.498,-0.21 -0.498,-0.408 0,-0.15 0.144,-0.24 0.306,-0.24 0.24,0 0.462,0.12 0.624,0.264 z m 1.554005,-1.686 h -0.852 v 4.5 h 0.852 v -2.094 c 0.156,-0.258 0.432,-0.402 0.684,-0.402 0.186,0 0.342,0.066 0.42,0.222 0.09,0.18 0.096,0.444 0.096,0.678 v 1.596 h 0.852 v -1.638 c 0,-0.45 -0.036,-0.858 -0.282,-1.176 -0.198,-0.252 -0.498,-0.414 -0.84,-0.414 -0.324,0 -0.678,0.138 -0.93,0.444 z"
       id="path21" />
    <path
       d="m 32.006006,60.999999 -1.602,-1.422 -0.33,0.378 0.486,0.438 c -0.204,0.288 -0.504,0.444 -0.888,0.444 -0.492,0 -0.906,-0.354 -0.906,-0.804 0,-0.36 0.21,-0.642 0.516,-0.786 l 0.108,0.096 0.324,-0.384 c -0.384,-0.342 -0.642,-0.582 -0.642,-0.906 0,-0.33 0.27,-0.552 0.618,-0.552 0.294,0 0.528,0.126 0.6,0.396 l 0.504,-0.144 c -0.132,-0.474 -0.576,-0.756 -1.08,-0.756 -0.582,0 -1.188,0.414 -1.188,1.026 0,0.354 0.18,0.636 0.402,0.876 -0.414,0.222 -0.708,0.63 -0.708,1.14 0,0.69 0.648,1.302 1.386,1.302 0.528,0 1.002,-0.192 1.32,-0.624 l 0.744,0.66 z"
       id="path22" />
    <path
       style="font-weight:bold;fill:#f8c014"
       d="m 36.548008,57.507999 v -0.438 h -2.886 v 0.726 h 1.722 l -1.77,3.018 v 0.456 h 3.078 v -0.726 h -1.92 z m 3.306002,3.762 v -1.896 c 0,-0.822 -0.426,-1.332 -1.302,-1.332 -0.468,0 -0.954,0.126 -1.356,0.324 l 0.228,0.612 c 0.276,-0.144 0.594,-0.276 0.954,-0.276 0.462,0 0.624,0.24 0.624,0.636 v 0.048 c -0.198,-0.042 -0.396,-0.066 -0.57,-0.066 -0.654,0 -1.374,0.246 -1.374,1.02 0,0.648 0.546,1.002 1.134,1.002 0.336,0 0.654,-0.09 0.858,-0.342 l 0.066,0.27 z m -0.852,-0.792 c -0.18,0.162 -0.384,0.27 -0.63,0.27 -0.252,0 -0.48,-0.144 -0.48,-0.42 0,-0.372 0.366,-0.486 0.678,-0.486 0.132,0 0.27,0.018 0.432,0.054 z m 2.502004,0.792 v -3.156 h -0.852 v 3.156 z m 0,-3.594 v -0.726 h -0.852 v 0.726 z m 0.828004,0.438 v 3.156 h 0.852 v -2.094 c 0.156,-0.258 0.432,-0.402 0.684,-0.402 0.186,0 0.342,0.066 0.42,0.222 0.09,0.18 0.096,0.444 0.096,0.678 v 1.596 h 0.852 v -1.638 c 0,-0.45 -0.036,-0.858 -0.282,-1.176 -0.198,-0.252 -0.498,-0.414 -0.84,-0.414 -0.348,0 -0.726,0.15 -0.978,0.504 l -0.066,-0.432 z"
       id="path23" />
    <path
       d="m 50.378019,58.269999 h -0.546 v 0.33 c -0.24,-0.246 -0.594,-0.402 -0.942,-0.402 -0.918,0 -1.512,0.774 -1.512,1.572 0,0.876 0.636,1.572 1.5,1.572 0.36,0 0.738,-0.156 0.954,-0.474 v 1.902 h 0.546 z m -0.546,2.004 c -0.156,0.366 -0.558,0.564 -0.882,0.564 -0.624,0 -1.014,-0.504 -1.014,-1.056 0,-0.522 0.33,-1.08 1.026,-1.08 0.306,0 0.66,0.162 0.87,0.456 z m 3.635996,0.996 h 0.546 v -3 h -0.546 v 1.992 c -0.216,0.336 -0.546,0.576 -0.894,0.576 -0.264,0 -0.426,-0.096 -0.522,-0.24 -0.144,-0.216 -0.156,-0.534 -0.156,-0.828 v -1.5 h -0.546 v 1.56 c 0,0.456 0.066,0.858 0.27,1.134 0.174,0.234 0.45,0.378 0.87,0.378 0.402,0 0.756,-0.21 0.978,-0.564 z m 3.858006,0 v -1.824 c 0,-0.774 -0.318,-1.248 -1.188,-1.248 -0.414,0 -0.87,0.132 -1.182,0.282 l 0.162,0.456 c 0.24,-0.132 0.606,-0.264 0.954,-0.264 0.492,0 0.708,0.264 0.708,0.72 v 0.108 c -0.258,-0.054 -0.45,-0.066 -0.6,-0.066 -0.66,0 -1.338,0.234 -1.338,0.996 0,0.642 0.51,0.912 1.062,0.912 0.384,0 0.654,-0.114 0.9,-0.39 v 0.318 z m -0.546,-0.744 c -0.24,0.204 -0.504,0.36 -0.81,0.36 -0.318,0 -0.594,-0.132 -0.594,-0.498 0,-0.45 0.492,-0.54 0.864,-0.54 0.15,0 0.318,0.012 0.54,0.06 z m 2.063997,-3.756 h -0.546 v 4.5 h 0.546 z m 1.554004,4.5 v -3 h -0.546 v 3 z m 0,-3.588 v -0.612 h -0.546 v 0.612 z m 2.478005,1.068 v -0.48 h -0.81 v -0.378 c 0,-0.27 0.018,-0.48 0.156,-0.594 0.078,-0.06 0.186,-0.096 0.348,-0.096 0.108,0 0.204,0.018 0.294,0.048 l 0.084,-0.474 c -0.144,-0.048 -0.3,-0.078 -0.444,-0.078 -0.402,0 -0.648,0.132 -0.798,0.354 -0.132,0.198 -0.186,0.474 -0.186,0.786 v 0.432 h -0.342 v 0.48 h 0.342 v 2.52 h 0.546 v -2.52 z m 1.098,2.52 v -3 h -0.546 v 3 z m 0,-3.588 v -0.612 h -0.546 v 0.612 z m 3.588004,2.226 c 0.012,-0.078 0.024,-0.21 0.024,-0.312 0,-0.804 -0.576,-1.398 -1.368,-1.398 -0.834,0 -1.488,0.678 -1.488,1.572 0,0.876 0.534,1.572 1.488,1.572 0.606,0 1.014,-0.222 1.314,-0.702 l -0.396,-0.252 c -0.18,0.342 -0.498,0.486 -0.894,0.486 -0.576,0 -0.93,-0.45 -0.966,-0.966 z m -1.338,-1.242 c 0.45,0 0.774,0.378 0.798,0.804 h -1.704 c 0.108,-0.45 0.42,-0.804 0.906,-0.804 z m 3.365997,2.676 c 0.36,0 0.738,-0.156 0.954,-0.474 v 0.402 h 0.546 v -4.5 h -0.546 v 1.83 c -0.24,-0.246 -0.594,-0.402 -0.942,-0.402 -0.918,0 -1.512,0.774 -1.512,1.572 0,0.876 0.636,1.572 1.5,1.572 z m 0.072,-0.504 c -0.624,0 -1.014,-0.504 -1.014,-1.056 0,-0.522 0.33,-1.08 1.026,-1.08 0.306,0 0.66,0.162 0.87,0.456 v 1.116 c -0.156,0.366 -0.558,0.564 -0.882,0.564 z m 5.627997,-4.008 c -0.174,-0.072 -0.396,-0.132 -0.594,-0.132 -0.402,0 -0.648,0.132 -0.798,0.354 -0.132,0.198 -0.186,0.474 -0.186,0.786 v 0.432 h -0.342 v 0.48 h 0.342 v 2.52 h 0.546 v -2.52 h 0.81 v -0.48 h -0.81 v -0.378 c 0,-0.27 0.018,-0.48 0.156,-0.594 0.078,-0.06 0.186,-0.096 0.348,-0.096 0.144,0 0.258,0.03 0.372,0.084 z m 1.607995,1.368 c -0.876,0 -1.53,0.696 -1.53,1.572 0,0.876 0.654,1.572 1.53,1.572 0.876,0 1.53,-0.696 1.53,-1.572 0,-0.876 -0.654,-1.572 -1.53,-1.572 z m 0.972,1.572 c 0,0.582 -0.408,1.068 -0.972,1.068 -0.564,0 -0.972,-0.486 -0.972,-1.068 0,-0.582 0.408,-1.068 0.972,-1.068 0.564,0 0.972,0.486 0.972,1.068 z m 1.860003,-1.5 h -0.546 v 3 h 0.546 v -2.01 c 0.186,-0.324 0.408,-0.504 0.714,-0.504 0.114,0 0.192,0.018 0.282,0.06 l 0.102,-0.582 c -0.114,-0.024 -0.198,-0.036 -0.324,-0.036 -0.324,0 -0.594,0.246 -0.774,0.57 z m 4.512006,0.48 v -0.48 h -0.84 v -0.72 h -0.546 v 0.72 h -0.402 v 0.48 h 0.402 v 1.488 c 0,0.234 0.024,0.456 0.096,0.624 0.126,0.282 0.384,0.468 0.804,0.468 0.198,0 0.408,-0.054 0.558,-0.132 l -0.15,-0.438 c -0.096,0.048 -0.216,0.084 -0.336,0.084 -0.3,0 -0.402,-0.186 -0.42,-0.504 -0.006,-0.09 -0.006,-0.156 -0.006,-0.234 v -1.356 z m 1.206004,-1.98 h -0.546 v 4.5 h 0.546 v -1.992 c 0.216,-0.336 0.546,-0.576 0.894,-0.576 0.264,0 0.426,0.096 0.522,0.24 0.144,0.216 0.156,0.534 0.156,0.828 v 1.5 h 0.546 v -1.56 c 0,-0.456 -0.066,-0.858 -0.27,-1.134 -0.174,-0.234 -0.45,-0.378 -0.87,-0.378 -0.402,0 -0.756,0.21 -0.978,0.564 z m 5.670002,3.138 c 0.012,-0.078 0.024,-0.21 0.024,-0.312 0,-0.804 -0.576,-1.398 -1.368,-1.398 -0.834,0 -1.488,0.678 -1.488,1.572 0,0.876 0.534,1.572 1.488,1.572 0.606,0 1.014,-0.222 1.314,-0.702 l -0.396,-0.252 c -0.18,0.342 -0.498,0.486 -0.894,0.486 -0.576,0 -0.93,-0.45 -0.966,-0.966 z m -1.338,-1.242 c 0.45,0 0.774,0.378 0.798,0.804 h -1.704 c 0.108,-0.45 0.42,-0.804 0.906,-0.804 z m 5.088,0.084 v -0.48 h -0.81 v -0.378 c 0,-0.27 0.018,-0.48 0.156,-0.594 0.078,-0.06 0.186,-0.096 0.348,-0.096 0.108,0 0.204,0.018 0.294,0.048 l 0.084,-0.474 c -0.144,-0.048 -0.3,-0.078 -0.444,-0.078 -0.402,0 -0.648,0.132 -0.798,0.354 -0.132,0.198 -0.186,0.474 -0.186,0.786 v 0.432 h -0.342 v 0.48 h 0.342 v 2.52 h 0.546 v -2.52 z m 1.098,2.52 v -3 h -0.546 v 3 z m 0,-3.588 v -0.612 h -0.546 v 0.612 z m 1.008004,0.588 v 3 h 0.546 v -1.992 c 0.216,-0.336 0.546,-0.576 0.894,-0.576 0.264,0 0.426,0.096 0.522,0.24 0.144,0.216 0.156,0.534 0.156,0.828 v 1.5 h 0.546 v -1.56 c 0,-0.456 -0.066,-0.858 -0.27,-1.134 -0.174,-0.234 -0.45,-0.378 -0.87,-0.378 -0.402,0 -0.756,0.21 -0.978,0.564 v -0.492 z m 5.940001,3 v -1.824 c 0,-0.774 -0.318,-1.248 -1.188,-1.248 -0.414,0 -0.87,0.132 -1.182,0.282 l 0.162,0.456 c 0.24,-0.132 0.606,-0.264 0.954,-0.264 0.492,0 0.708,0.264 0.708,0.72 v 0.108 c -0.258,-0.054 -0.45,-0.066 -0.6,-0.066 -0.66,0 -1.338,0.234 -1.338,0.996 0,0.642 0.51,0.912 1.062,0.912 0.384,0 0.654,-0.114 0.9,-0.39 v 0.318 z m -0.546,-0.744 c -0.24,0.204 -0.504,0.36 -0.81,0.36 -0.318,0 -0.594,-0.132 -0.594,-0.498 0,-0.45 0.492,-0.54 0.864,-0.54 0.15,0 0.318,0.012 0.54,0.06 z m 2.064,-3.756 h -0.546 v 4.5 h 0.546 z m 3.054,1.5 h -0.546 v 3 h 0.546 v -2.01 c 0.186,-0.324 0.408,-0.504 0.714,-0.504 0.114,0 0.192,0.018 0.282,0.06 l 0.102,-0.582 c -0.114,-0.024 -0.198,-0.036 -0.324,-0.036 -0.324,0 -0.594,0.246 -0.774,0.57 z m 2.874,-0.072 c -0.876,0 -1.53,0.696 -1.53,1.572 0,0.876 0.654,1.572 1.53,1.572 0.876,0 1.53,-0.696 1.53,-1.572 0,-0.876 -0.654,-1.572 -1.53,-1.572 z m 0.972,1.572 c 0,0.582 -0.408,1.068 -0.972,1.068 -0.564,0 -0.972,-0.486 -0.972,-1.068 0,-0.582 0.408,-1.068 0.972,-1.068 0.564,0 0.972,0.486 0.972,1.068 z m 3.396,1.5 h 0.546 v -3 h -0.546 v 1.992 c -0.216,0.336 -0.546,0.576 -0.894,0.576 -0.264,0 -0.426,-0.096 -0.522,-0.24 -0.144,-0.216 -0.156,-0.534 -0.156,-0.828 v -1.5 h -0.546 v 1.56 c 0,0.456 0.066,0.858 0.27,1.134 0.174,0.234 0.45,0.378 0.87,0.378 0.402,0 0.756,-0.21 0.978,-0.564 z m 1.55401,-3 v 3 h 0.546 v -1.992 c 0.216,-0.336 0.546,-0.576 0.894,-0.576 0.264,0 0.426,0.096 0.522,0.24 0.144,0.216 0.156,0.534 0.156,0.828 v 1.5 h 0.546 v -1.56 c 0,-0.456 -0.066,-0.858 -0.27,-1.134 -0.174,-0.234 -0.45,-0.378 -0.87,-0.378 -0.402,0 -0.756,0.21 -0.978,0.564 v -0.492 z m 4.884,3.072 c 0.36,0 0.738,-0.156 0.954,-0.474 v 0.402 h 0.546 v -4.5 h -0.546 v 1.83 c -0.24,-0.246 -0.594,-0.402 -0.942,-0.402 -0.918,0 -1.512,0.774 -1.512,1.572 0,0.876 0.636,1.572 1.5,1.572 z m 0.072,-0.504 c -0.624,0 -1.014,-0.504 -1.014,-1.056 0,-0.522 0.33,-1.08 1.026,-1.08 0.306,0 0.66,0.162 0.87,0.456 v 1.116 c -0.156,0.366 -0.558,0.564 -0.882,0.564 z m 5.214,-2.64 c -0.876,0 -1.53,0.696 -1.53,1.572 0,0.876 0.654,1.572 1.53,1.572 0.876,0 1.53,-0.696 1.53,-1.572 0,-0.876 -0.654,-1.572 -1.53,-1.572 z m 0.972,1.572 c 0,0.582 -0.408,1.068 -0.972,1.068 -0.564,0 -0.972,-0.486 -0.972,-1.068 0,-0.582 0.408,-1.068 0.972,-1.068 0.564,0 0.972,0.486 0.972,1.068 z m 3.006,-2.94 c -0.174,-0.072 -0.396,-0.132 -0.594,-0.132 -0.402,0 -0.648,0.132 -0.798,0.354 -0.132,0.198 -0.186,0.474 -0.186,0.786 v 0.432 h -0.342 v 0.48 h 0.342 v 2.52 h 0.546 v -2.52 h 0.81 v -0.48 h -0.81 v -0.378 c 0,-0.27 0.018,-0.48 0.156,-0.594 0.078,-0.06 0.186,-0.096 0.348,-0.096 0.144,0 0.258,0.03 0.372,0.084 z m 3.246,1.92 v -0.48 h -0.84 v -0.72 h -0.546 v 0.72 h -0.402 v 0.48 h 0.402 v 1.488 c 0,0.234 0.024,0.456 0.096,0.624 0.126,0.282 0.384,0.468 0.804,0.468 0.198,0 0.408,-0.054 0.558,-0.132 l -0.15,-0.438 c -0.096,0.048 -0.216,0.084 -0.336,0.084 -0.3,0 -0.402,-0.186 -0.42,-0.504 -0.006,-0.09 -0.006,-0.156 -0.006,-0.234 v -1.356 z m 1.206,-1.98 h -0.546 v 4.5 h 0.546 v -1.992 c 0.216,-0.336 0.546,-0.576 0.894,-0.576 0.264,0 0.426,0.096 0.522,0.24 0.144,0.216 0.156,0.534 0.156,0.828 v 1.5 h 0.546 v -1.56 c 0,-0.456 -0.066,-0.858 -0.27,-1.134 -0.174,-0.234 -0.45,-0.378 -0.87,-0.378 -0.402,0 -0.756,0.21 -0.978,0.564 z m 5.67001,3.138 c 0.012,-0.078 0.024,-0.21 0.024,-0.312 0,-0.804 -0.576,-1.398 -1.368,-1.398 -0.834,0 -1.488,0.678 -1.488,1.572 0,0.876 0.534,1.572 1.488,1.572 0.606,0 1.014,-0.222 1.314,-0.702 l -0.396,-0.252 c -0.18,0.342 -0.498,0.486 -0.894,0.486 -0.576,0 -0.93,-0.45 -0.966,-0.966 z m -1.338,-1.242 c 0.45,0 0.774,0.378 0.798,0.804 h -1.704 c 0.108,-0.45 0.42,-0.804 0.906,-0.804 z m 4.26,2.604 v -4.2 h -0.576 v 4.2 z m 1.074,-3 v 3 h 0.546 v -1.992 c 0.216,-0.336 0.546,-0.576 0.894,-0.576 0.264,0 0.426,0.096 0.522,0.24 0.144,0.216 0.156,0.534 0.156,0.828 v 1.5 h 0.546 v -1.56 c 0,-0.456 -0.066,-0.858 -0.27,-1.134 -0.174,-0.234 -0.45,-0.378 -0.87,-0.378 -0.402,0 -0.756,0.21 -0.978,0.564 v -0.492 z m 5.052,0.48 v -0.48 h -0.84 v -0.72 h -0.546 v 0.72 h -0.402 v 0.48 h 0.402 v 1.488 c 0,0.234 0.024,0.456 0.096,0.624 0.126,0.282 0.384,0.468 0.804,0.468 0.198,0 0.408,-0.054 0.558,-0.132 l -0.15,-0.438 c -0.096,0.048 -0.216,0.084 -0.336,0.084 -0.3,0 -0.402,-0.186 -0.42,-0.504 -0.006,-0.09 -0.006,-0.156 -0.006,-0.234 v -1.356 z m 3.24001,1.158 c 0.012,-0.078 0.024,-0.21 0.024,-0.312 0,-0.804 -0.576,-1.398 -1.368,-1.398 -0.834,0 -1.488,0.678 -1.488,1.572 0,0.876 0.534,1.572 1.488,1.572 0.606,0 1.014,-0.222 1.314,-0.702 l -0.396,-0.252 c -0.18,0.342 -0.498,0.486 -0.894,0.486 -0.576,0 -0.93,-0.45 -0.966,-0.966 z m -1.338,-1.242 c 0.45,0 0.774,0.378 0.798,0.804 h -1.704 c 0.108,-0.45 0.42,-0.804 0.906,-0.804 z m 2.66398,-0.396 h -0.546 v 3 h 0.546 v -2.01 c 0.186,-0.324 0.408,-0.504 0.714,-0.504 0.114,0 0.192,0.018 0.282,0.06 l 0.102,-0.582 c -0.114,-0.024 -0.198,-0.036 -0.324,-0.036 -0.324,0 -0.594,0.246 -0.774,0.57 z m 1.59601,0 v 3 h 0.546 v -1.992 c 0.216,-0.336 0.546,-0.576 0.894,-0.576 0.264,0 0.426,0.096 0.522,0.24 0.144,0.216 0.156,0.534 0.156,0.828 v 1.5 h 0.546 v -1.56 c 0,-0.456 -0.066,-0.858 -0.27,-1.134 -0.174,-0.234 -0.45,-0.378 -0.87,-0.378 -0.402,0 -0.756,0.21 -0.978,0.564 v -0.492 z m 5.94001,3 v -1.824 c 0,-0.774 -0.318,-1.248 -1.188,-1.248 -0.414,0 -0.87,0.132 -1.182,0.282 l 0.162,0.456 c 0.24,-0.132 0.606,-0.264 0.954,-0.264 0.492,0 0.708,0.264 0.708,0.72 v 0.108 c -0.258,-0.054 -0.45,-0.066 -0.6,-0.066 -0.66,0 -1.338,0.234 -1.338,0.996 0,0.642 0.51,0.912 1.062,0.912 0.384,0 0.654,-0.114 0.9,-0.39 v 0.318 z m -0.546,-0.744 c -0.24,0.204 -0.504,0.36 -0.81,0.36 -0.318,0 -0.594,-0.132 -0.594,-0.498 0,-0.45 0.492,-0.54 0.864,-0.54 0.15,0 0.318,0.012 0.54,0.06 z m 2.934,-1.776 v -0.48 h -0.84 v -0.72 h -0.546 v 0.72 h -0.402 v 0.48 h 0.402 v 1.488 c 0,0.234 0.024,0.456 0.096,0.624 0.126,0.282 0.384,0.468 0.804,0.468 0.198,0 0.408,-0.054 0.558,-0.132 l -0.15,-0.438 c -0.096,0.048 -0.216,0.084 -0.336,0.084 -0.3,0 -0.402,-0.186 -0.42,-0.504 -0.006,-0.09 -0.006,-0.156 -0.006,-0.234 v -1.356 z m 1.206,2.52 v -3 h -0.546 v 3 z m 0,-3.588 v -0.612 h -0.546 v 0.612 z m 2.286,0.516 c -0.876,0 -1.53,0.696 -1.53,1.572 0,0.876 0.654,1.572 1.53,1.572 0.876,0 1.53,-0.696 1.53,-1.572 0,-0.876 -0.654,-1.572 -1.53,-1.572 z m 0.972,1.572 c 0,0.582 -0.408,1.068 -0.972,1.068 -0.564,0 -0.972,-0.486 -0.972,-1.068 0,-0.582 0.408,-1.068 0.972,-1.068 0.564,0 0.972,0.486 0.972,1.068 z m 1.314,-1.5 v 3 h 0.546 v -1.992 c 0.216,-0.336 0.546,-0.576 0.894,-0.576 0.264,0 0.426,0.096 0.522,0.24 0.144,0.216 0.156,0.534 0.156,0.828 v 1.5 h 0.546 v -1.56 c 0,-0.456 -0.066,-0.858 -0.27,-1.134 -0.174,-0.234 -0.45,-0.378 -0.87,-0.378 -0.402,0 -0.756,0.21 -0.978,0.564 v -0.492 z m 5.94001,3 v -1.824 c 0,-0.774 -0.318,-1.248 -1.188,-1.248 -0.414,0 -0.87,0.132 -1.182,0.282 l 0.162,0.456 c 0.24,-0.132 0.606,-0.264 0.954,-0.264 0.492,0 0.708,0.264 0.708,0.72 v 0.108 c -0.258,-0.054 -0.45,-0.066 -0.6,-0.066 -0.66,0 -1.338,0.234 -1.338,0.996 0,0.642 0.51,0.912 1.062,0.912 0.384,0 0.654,-0.114 0.9,-0.39 v 0.318 z m -0.546,-0.744 c -0.24,0.204 -0.504,0.36 -0.81,0.36 -0.318,0 -0.594,-0.132 -0.594,-0.498 0,-0.45 0.492,-0.54 0.864,-0.54 0.15,0 0.318,0.012 0.54,0.06 z m 2.06399,-3.756 h -0.546 v 4.5 h 0.546 z m 3.948,4.5 v -1.794 l 1.356,-2.406 h -0.672 l -0.93,1.764 h -0.018 l -0.936,-1.764 h -0.714 l 1.338,2.376 v 1.824 z m 2.748,-3.072 c -0.876,0 -1.53,0.696 -1.53,1.572 0,0.876 0.654,1.572 1.53,1.572 0.876,0 1.53,-0.696 1.53,-1.572 0,-0.876 -0.654,-1.572 -1.53,-1.572 z m 0.972,1.572 c 0,0.582 -0.408,1.068 -0.972,1.068 -0.564,0 -0.972,-0.486 -0.972,-1.068 0,-0.582 0.408,-1.068 0.972,-1.068 0.564,0 0.972,0.486 0.972,1.068 z m 3.39601,1.5 h 0.546 v -3 h -0.546 v 1.992 c -0.216,0.336 -0.546,0.576 -0.894,0.576 -0.264,0 -0.426,-0.096 -0.522,-0.24 -0.144,-0.216 -0.156,-0.534 -0.156,-0.828 v -1.5 h -0.546 v 1.56 c 0,0.456 0.066,0.858 0.27,1.134 0.174,0.234 0.45,0.378 0.87,0.378 0.402,0 0.756,-0.21 0.978,-0.564 z m 2.97001,-2.52 v -0.48 h -0.84 v -0.72 h -0.546 v 0.72 h -0.402 v 0.48 h 0.402 v 1.488 c 0,0.234 0.024,0.456 0.096,0.624 0.126,0.282 0.384,0.468 0.804,0.468 0.198,0 0.408,-0.054 0.558,-0.132 l -0.15,-0.438 c -0.096,0.048 -0.216,0.084 -0.336,0.084 -0.3,0 -0.402,-0.186 -0.42,-0.504 -0.006,-0.09 -0.006,-0.156 -0.006,-0.234 v -1.356 z m 1.206,-1.98 h -0.546 v 4.5 h 0.546 v -1.992 c 0.216,-0.336 0.546,-0.576 0.894,-0.576 0.264,0 0.426,0.096 0.522,0.24 0.144,0.216 0.156,0.534 0.156,0.828 v 1.5 h 0.546 v -1.56 c 0,-0.456 -0.066,-0.858 -0.27,-1.134 -0.174,-0.234 -0.45,-0.378 -0.87,-0.378 -0.402,0 -0.756,0.21 -0.978,0.564 z"
       id="path24" />
    <path
       d="m 15.656,65.223999 v 3.546 h 0.576 v -4.2 H 15.32 l -1.296,3.282 -1.278,-3.282 h -0.912 v 4.2 h 0.576 v -3.546 l 1.41,3.546 h 0.402 z m 3.954002,3.546 v -1.824 c 0,-0.774 -0.318,-1.248 -1.188,-1.248 -0.414,0 -0.87,0.132 -1.182,0.282 l 0.162,0.456 c 0.24,-0.132 0.606,-0.264 0.954,-0.264 0.492,0 0.708,0.264 0.708,0.72 v 0.108 c -0.258,-0.054 -0.45,-0.066 -0.6,-0.066 -0.66,0 -1.338,0.234 -1.338,0.996 0,0.642 0.51,0.912 1.062,0.912 0.384,0 0.654,-0.114 0.9,-0.39 v 0.318 z m -0.546,-0.744 c -0.24,0.204 -0.504,0.36 -0.81,0.36 -0.318,0 -0.594,-0.132 -0.594,-0.498 0,-0.45 0.492,-0.54 0.864,-0.54 0.15,0 0.318,0.012 0.54,0.06 z m 2.933997,-1.776 v -0.48 h -0.84 v -0.72 h -0.546 v 0.72 h -0.402 v 0.48 h 0.402 v 1.488 c 0,0.234 0.024,0.456 0.096,0.624 0.126,0.282 0.384,0.468 0.804,0.468 0.198,0 0.408,-0.054 0.558,-0.132 l -0.15,-0.438 c -0.096,0.048 -0.216,0.084 -0.336,0.084 -0.3,0 -0.402,-0.186 -0.42,-0.504 -0.006,-0.09 -0.006,-0.156 -0.006,-0.234 v -1.356 z m 1.206004,-1.98 h -0.546 v 4.5 h 0.546 v -1.992 c 0.216,-0.336 0.546,-0.576 0.894,-0.576 0.264,0 0.426,0.096 0.522,0.24 0.144,0.216 0.156,0.534 0.156,0.828 v 1.5 h 0.546 v -1.56 c 0,-0.456 -0.066,-0.858 -0.27,-1.134 -0.174,-0.234 -0.45,-0.378 -0.87,-0.378 -0.402,0 -0.756,0.21 -0.978,0.564 z m 4.878006,1.758 c -0.24,-0.216 -0.582,-0.33 -0.924,-0.33 -0.498,0 -0.966,0.288 -0.966,0.894 0,0.54 0.462,0.714 0.858,0.87 0.3,0.12 0.576,0.228 0.576,0.462 0,0.312 -0.246,0.462 -0.54,0.462 -0.24,0 -0.456,-0.108 -0.654,-0.318 l -0.384,0.306 c 0.234,0.306 0.624,0.468 1.032,0.468 0.564,0 1.086,-0.27 1.086,-0.942 0,-0.522 -0.486,-0.744 -0.876,-0.894 -0.288,-0.114 -0.576,-0.228 -0.576,-0.456 0,-0.234 0.174,-0.396 0.45,-0.396 0.204,0 0.456,0.102 0.594,0.222 z m 5.766001,2.43 -0.306,-0.426 c -0.294,0.198 -0.6,0.294 -0.93,0.294 -0.96,0 -1.644,-0.636 -1.644,-1.656 0,-0.96 0.696,-1.656 1.644,-1.656 0.312,0 0.606,0.096 0.858,0.252 l 0.27,-0.444 c -0.33,-0.204 -0.714,-0.324 -1.128,-0.324 -1.242,0 -2.256,0.93 -2.256,2.172 0,1.326 1.002,2.172 2.256,2.172 0.45,0 0.876,-0.138 1.236,-0.384 z m 1.241999,-4.188 h -0.546 v 4.5 h 0.546 v -1.992 c 0.216,-0.336 0.546,-0.576 0.894,-0.576 0.264,0 0.426,0.096 0.522,0.24 0.144,0.216 0.156,0.534 0.156,0.828 v 1.5 h 0.546 v -1.56 c 0,-0.456 -0.066,-0.858 -0.27,-1.134 -0.174,-0.234 -0.45,-0.378 -0.87,-0.378 -0.402,0 -0.756,0.21 -0.978,0.564 z m 5.394005,4.5 v -1.824 c 0,-0.774 -0.318,-1.248 -1.188,-1.248 -0.414,0 -0.87,0.132 -1.182,0.282 l 0.162,0.456 c 0.24,-0.132 0.606,-0.264 0.954,-0.264 0.492,0 0.708,0.264 0.708,0.72 v 0.108 c -0.258,-0.054 -0.45,-0.066 -0.6,-0.066 -0.66,0 -1.338,0.234 -1.338,0.996 0,0.642 0.51,0.912 1.062,0.912 0.384,0 0.654,-0.114 0.9,-0.39 v 0.318 z m -0.546,-0.744 c -0.24,0.204 -0.504,0.36 -0.81,0.36 -0.318,0 -0.594,-0.132 -0.594,-0.498 0,-0.45 0.492,-0.54 0.864,-0.54 0.15,0 0.318,0.012 0.54,0.06 z m 2.063997,-3.756 h -0.546 v 4.5 h 0.546 z m 1.554005,0 h -0.546 v 4.5 h 0.546 z m 3.588004,3.138 c 0.012,-0.078 0.024,-0.21 0.024,-0.312 0,-0.804 -0.576,-1.398 -1.368,-1.398 -0.834,0 -1.488,0.678 -1.488,1.572 0,0.876 0.534,1.572 1.488,1.572 0.606,0 1.014,-0.222 1.314,-0.702 l -0.396,-0.252 c -0.18,0.342 -0.498,0.486 -0.894,0.486 -0.576,0 -0.93,-0.45 -0.966,-0.966 z m -1.338,-1.242 c 0.45,0 0.774,0.378 0.798,0.804 h -1.704 c 0.108,-0.45 0.42,-0.804 0.906,-0.804 z m 2.117997,-0.396 v 3 h 0.546 v -1.992 c 0.216,-0.336 0.546,-0.576 0.894,-0.576 0.264,0 0.426,0.096 0.522,0.24 0.144,0.216 0.156,0.534 0.156,0.828 v 1.5 h 0.546 v -1.56 c 0,-0.456 -0.066,-0.858 -0.27,-1.134 -0.174,-0.234 -0.45,-0.378 -0.87,-0.378 -0.402,0 -0.756,0.21 -0.978,0.564 v -0.492 z m 6.384006,0 h -0.546 v 0.33 c -0.24,-0.246 -0.594,-0.402 -0.942,-0.402 -0.918,0 -1.512,0.75 -1.512,1.536 0,0.864 0.642,1.536 1.494,1.536 0.36,0 0.744,-0.156 0.96,-0.474 v 0.414 c 0,0.642 -0.462,0.888 -0.978,0.888 -0.378,0 -0.828,-0.162 -1.104,-0.36 l -0.21,0.468 c 0.36,0.264 0.864,0.396 1.326,0.396 0.564,0 1.086,-0.192 1.356,-0.714 0.108,-0.21 0.156,-0.474 0.156,-0.786 z m -0.546,1.938 c -0.156,0.36 -0.564,0.558 -0.888,0.558 -0.612,0 -1.008,-0.48 -1.008,-1.02 0,-0.51 0.33,-1.044 1.026,-1.044 0.306,0 0.66,0.162 0.87,0.456 z m 4.098005,-0.3 c 0.012,-0.078 0.024,-0.21 0.024,-0.312 0,-0.804 -0.576,-1.398 -1.368,-1.398 -0.834,0 -1.488,0.678 -1.488,1.572 0,0.876 0.534,1.572 1.488,1.572 0.606,0 1.014,-0.222 1.314,-0.702 l -0.396,-0.252 c -0.18,0.342 -0.498,0.486 -0.894,0.486 -0.576,0 -0.93,-0.45 -0.966,-0.966 z m -1.338,-1.242 c 0.45,0 0.774,0.378 0.798,0.804 h -1.704 c 0.108,-0.45 0.42,-0.804 0.906,-0.804 z"
       id="path25" />
  </g>
</svg>
